<svg class="cookie-policy-popup-icon svelte-oryb00" viewBox="0 0 26 26" fill="none" xmlns="http://www.w3.org/2000/svg"><path fill-rule="evenodd" clip-rule="evenodd" d="M21.5 7.65a4.2 4.2 0 01-3.95-2.85 4.2 4.2 0 01-6.56-3.47l.03-.33a12.09 12.09 0 1012.63 6.04c-.63.38-1.35.6-2.14.6z" fill="#E25D33" stroke="#E25D33" stroke-linejoin="round"></path><path clip-rule="evenodd" d="M11 9.75a2.1 2.1 0 11-4.22 0 2.1 2.1 0 014.21 0v0zM17.3 15a1.05 1.05 0 11-2.1 0 1.05 1.05 0 012.1 0v0zM12.04 18.16a2.1 2.1 0 11-4.2 0 2.1 2.1 0 014.2 0v0zM17.83 10.8a.53.53 0 11-1.05 0 .53.53 0 011.05 0v0zM5.2 13.96a.53.53 0 11-1.05 0 .53.53 0 011.06 0v0zM16.78 20.27a.53.53 0 11-1.06 0 .53.53 0 011.06 0v0z" stroke="#fff" stroke-linejoin="round"></path></svg>