
<svg xmlns="http://www.w3.org/2000/svg">

    <symbol id="icon-phone" viewBox="0 0 384 384">
        <path d="M353.188,252.052c-23.51,0-46.594-3.677-68.469-10.906c-10.719-3.656-23.896-0.302-30.438,6.417l-43.177,32.594 c-50.073-26.729-80.917-57.563-107.281-107.26l31.635-42.052c8.219-8.208,11.167-20.198,7.635-31.448 c-7.26-21.99-10.948-45.063-10.948-68.583C132.146,13.823,118.323,0,101.333,0H30.813C13.823,0,0,13.823,0,30.813 C0,225.563,158.438,384,353.188,384c16.99,0,30.813-13.823,30.813-30.813v-70.323C384,265.875,370.177,252.052,353.188,252.052z"/>
    </symbol>
  
    <symbol id="icon-linkedin" viewBox="0 0 512 512">
      <path d="M416 32H31.9C14.3 32 0 46.5 0 64.3v383.4C0 465.5 14.3 480 31.9 480H416c17.6 0 32-14.5 32-32.3V64.3c0-17.8-14.4-32.3-32-32.3zM135.4 416H69V202.2h66.5V416zm-33.2-243c-21.3 0-38.5-17.3-38.5-38.5S80.9 96 102.2 96c21.2 0 38.5 17.3 38.5 38.5 0 21.3-17.2 38.5-38.5 38.5zm282.1 243h-66.4V312c0-24.8-.5-56.7-34.5-56.7-34.6 0-39.9 27-39.9 54.9V416h-66.4V202.2h63.7v29.2h.9c8.9-16.8 30.6-34.5 62.9-34.5 67.2 0 79.7 44.3 79.7 101.9V416z"></path>
    </symbol>
  
    <symbol id="icon-facebook" viewBox="0 0 512 512">
      <path d="m480 57l0 398c0 14-11 25-25 25l-114 0 0-173 58 0 9-68-67 0 0-43c0-20 5-33 34-33l35 0 0-61c-6 0-27-2-52-2-51 0-87 31-87 89l0 50-58 0 0 68 58 0 0 173-214 0c-14 0-25-11-25-25l0-398c0-14 11-25 25-25l398 0c14 0 25 11 25 25z"/>
    </symbol>

    <symbol viewBox="0 0 504 504" id="icon-pinterest">
      <path d="M377.6 0H126C56.8 0 0 56.8 0 126.4V378c0 69.2 56.8 126 126 126h251.6c69.6 0 126.4-56.8 126.4-126.4V126.4C504 56.8 447.2 0 377.6 0zM277.2 322c-20 0-39.2-10.4-45.6-22.4 0 0-10.8 41.6-13.2 49.6-8 28.4-32 56.8-33.6 59.2-1.2 1.6-4 1.2-4.4-1.2-.4-3.6-6.4-39.6.4-68.8 3.6-14.8 24-98.4 24-98.4s-6-11.6-6-28.4c0-26.8 16-46.8 36-46.8 16.8 0 25.2 12.4 25.2 27.2 0 16.4-10.8 41.2-16.4 64-4.8 19.2 10 34.8 29.6 34.8 35.2 0 59.2-44 59.2-96 0-39.6-27.6-69.2-77.6-69.2-56.4 0-92 40.8-92 86.4 0 15.6 4.8 26.8 12.4 35.6 3.6 4 4 5.6 2.8 10-.8 3.2-2.8 11.2-4 14.4-1.2 4.4-5.2 6.4-9.2 4.4-26-10.4-38-38-38-69.2 0-51.2 44.8-112.8 133.2-112.8 71.2 0 118 50 118 103.6-.4 71.2-40.8 124-100.8 124z"></path>
    </symbol>
  
    <symbol id="icon-google-plus" viewBox="0 0 512 512">
      <path d="m256 8c-137 0-248 111-248 248 0 137 111 248 248 248 137 0 248-111 248-248 0-137-111-248-248-248z m-71 372c-68 0-124-55-124-124 0-68 56-124 124-124 32 0 60 11 83 32l-33 33c-13-13-32-19-50-19-43 0-77 35-77 78 0 43 34 78 77 78 33 0 65-19 70-53l-70 0 0-43 117 0c2 7 2 14 2 21 0 71-47 121-119 121z m231-106l0 35-36 0 0-35-35 0 0-36 35 0 0-35 36 0 0 35 35 0 0 36z"/>
    </symbol>
  
    <symbol id="icon-youtube" viewBox="0 0 512 512">
      <path d="m489 139c-6-21-22-38-43-43-38-11-190-11-190-11 0 0-152 0-190 11-21 5-37 22-43 43-10 38-10 117-10 117 0 0 0 80 10 118 6 21 22 37 43 42 38 11 190 11 190 11 0 0 152 0 190-11 21-5 37-21 43-42 10-38 10-118 10-118 0 0 0-79-10-117z m-283 190l0-145 127 72z"/>
    </symbol>
  
    <symbol id="icon-twitter-square" viewBox="0 0 512 512">
      <path d="m432 32l-352 0c-26 0-48 22-48 48l0 352c0 27 22 48 48 48l352 0c27 0 48-21 48-48l0-352c0-26-21-48-48-48z m-49 159c0 3 2 6 2 8 0 87-66 187-186 187-38 0-72-11-101-29 5 6 10 8 16 8 30 0 59-11 81-28-29-1-53-20-61-46 10 2 19 2 29-1-30-6-52-33-52-65l0 0c9 5 19 8 29 8-18-12-29-33-29-55 0-12 3-23 9-33 32 40 81 66 135 69-9-45 24-81 64-81 19 0 36 8 48 21 15-3 29-8 42-16-5 15-15 28-29 36 13-1 26-5 38-10-9 13-20 25-33 34z"/>
    </symbol>

    <symbol id="icon-bars" viewBox="0 0 448 512">
      <path d="M16 132h416c8.837 0 16-7.163 16-16V76c0-8.837-7.163-16-16-16H16C7.163 60 0 67.163 0 76v40c0 8.837 7.163 16 16 16zm0 160h416c8.837 0 16-7.163 16-16v-40c0-8.837-7.163-16-16-16H16c-8.837 0-16 7.163-16 16v40c0 8.837 7.163 16 16 16zm0 160h416c8.837 0 16-7.163 16-16v-40c0-8.837-7.163-16-16-16H16c-8.837 0-16 7.163-16 16v40c0 8.837 7.163 16 16 16z"/>
    </symbol>
  
    <symbol id="icon-ellipsis-h" viewBox="0 0 512 512">
      <path d="m304 256c0 27-21 48-48 48-26 0-48-21-48-48 0-26 22-48 48-48 27 0 48 22 48 48z m120-48c-26 0-48 22-48 48 0 27 22 48 48 48 27 0 48-21 48-48 0-26-21-48-48-48z m-336 0c-26 0-48 22-48 48 0 27 22 48 48 48 27 0 48-21 48-48 0-26-21-48-48-48z"/>
    </symbol>
  
    <symbol id="icon-angle-down" viewBox="0 0 512 512">
      <path d="m248 348l-148-147c-5-5-5-12 0-17l19-20c5-4 13-4 17 0l120 119 120-119c4-4 12-4 17 0l20 20c4 5 4 12 0 17l-148 147c-5 5-13 5-17 0z"/>
    </symbol>
  
    <symbol id="icon-angle-left" viewBox="0 0 512 512">
      <path d="m164 248l147-148c5-5 12-5 17 0l20 19c5 5 5 13 0 17l-119 120 119 120c5 4 5 12 0 17l-20 20c-5 4-12 4-17 0l-147-148c-4-5-4-13 0-17z"/>
    </symbol>
  
    <symbol id="icon-angle-up" viewBox="0 0 512 512">
      <path d="m265 164l148 147c4 5 4 12 0 17l-20 20c-5 5-13 5-17 0l-120-119-120 119c-4 5-12 5-17 0l-19-20c-5-5-5-12 0-17l148-147c4-4 12-4 17 0z"/>
    </symbol>
  
    <symbol id="icon-angle-right" viewBox="0 0 512 512">
      <path d="m348 265l-147 148c-5 4-12 4-17 0l-20-20c-4-5-4-13 0-17l119-120-119-120c-4-4-4-12 0-17l20-19c5-5 12-5 17 0l147 148c5 4 5 12 0 17z"/>
    </symbol>
  
    <symbol id="icon-check-light" viewBox="0 0 512 512">
      <path d="m446 92l-281 280-99-99c-4-5-12-5-16 0l-12 11c-4 5-4 13 0 17l119 119c5 5 12 5 17 0l300-300c4-4 4-12 0-17l-12-11c-4-5-12-5-16 0z"/>
    </symbol>
  
    <symbol id="icon-check-solid" viewBox="0 0 512 512">
      <path d="m174 439l-167-166c-10-10-10-26 0-36l37-36c10-10 26-10 36 0l112 112 240-240c10-10 26-10 36 0l37 36c10 10 10 26 0 36l-295 294c-10 10-26 10-36 0z"/>
    </symbol>

    <symbol id="icon-check" viewBox="0 0 512 512">
      <path d="m174 439l-167-166c-10-10-10-26 0-36l37-36c10-10 26-10 36 0l112 112 240-240c10-10 26-10 36 0l37 36c10 10 10 26 0 36l-295 294c-10 10-26 10-36 0z"/>
    </symbol>
  
    <symbol id="icon-check-regular" viewBox="0 0 512 512">
      <path d="m436 83l-263 264-97-97c-5-5-12-5-17 0l-28 28c-5 5-5 12 0 17l133 134c5 4 13 4 17 0l300-300c5-5 5-13 0-17l-28-29c-5-4-12-4-17 0z"/>
    </symbol>

    <symbol id="icon-check-circle" viewBox="0 0 512 512">
        <path d="M256 8C119.033 8 8 119.033 8 256s111.033 248 248 248 248-111.033 248-248S392.967 8 256 8zm0 48c110.532 0 200 89.451 200 200 0 110.532-89.451 200-200 200-110.532 0-200-89.451-200-200 0-110.532 89.451-200 200-200m140.204 130.267l-22.536-22.718c-4.667-4.705-12.265-4.736-16.97-.068L215.346 303.697l-59.792-60.277c-4.667-4.705-12.265-4.736-16.97-.069l-22.719 22.536c-4.705 4.667-4.736 12.265-.068 16.971l90.781 91.516c4.667 4.705 12.265 4.736 16.97.068l172.589-171.204c4.704-4.668 4.734-12.266.067-16.971z"></path>
    </symbol>

    <symbol id="icon-check-circle-solid" viewBox="0 0 408.576 408.576">
        <path d="M204.288,0C91.648,0,0,91.648,0,204.288s91.648,204.288,204.288,204.288s204.288-91.648,204.288-204.288 S316.928,0,204.288,0z M318.464,150.528l-130.56,129.536c-7.68,7.68-19.968,8.192-28.16,0.512L90.624,217.6
      c-8.192-7.68-8.704-20.48-1.536-28.672c7.68-8.192,20.48-8.704,28.672-1.024l54.784,50.176L289.28,121.344 c8.192-8.192,20.992-8.192,29.184,0C326.656,129.536,326.656,142.336,318.464,150.528z"/>
    </symbol>

    <symbol id="icon-plus" viewBox="0 0 512 512">
      <path d="m432 224l-144 0 0-144c0-9-7-16-16-16l-32 0c-9 0-16 7-16 16l0 144-144 0c-9 0-16 7-16 16l0 32c0 9 7 16 16 16l144 0 0 144c0 9 7 16 16 16l32 0c9 0 16-7 16-16l0-144 144 0c9 0 16-7 16-16l0-32c0-9-7-16-16-16z"/>
    </symbol>

    <symbol id="icon-pound" viewBox="0 0 320 512">
      <path d="M308 352h-45.495c-6.627 0-12 5.373-12 12v50.848H128V288h84c6.627 0 12-5.373 12-12v-40c0-6.627-5.373-12-12-12h-84v-63.556c0-32.266 24.562-57.086 61.792-57.086 23.658 0 45.878 11.505 57.652 18.849 5.151 3.213 11.888 2.051 15.688-2.685l28.493-35.513c4.233-5.276 3.279-13.005-2.119-17.081C273.124 54.56 236.576 32 187.931 32 106.026 32 48 84.742 48 157.961V224H20c-6.627 0-12 5.373-12 12v40c0 6.627 5.373 12 12 12h28v128H12c-6.627 0-12 5.373-12 12v40c0 6.627 5.373 12 12 12h296c6.627 0 12-5.373 12-12V364c0-6.627-5.373-12-12-12z"></path>
    </symbol>
  
    <symbol id="icon-info-circle" viewBox="0 0 512 512">
      <path d="m256 8c-137 0-248 111-248 248 0 137 111 248 248 248 137 0 248-111 248-248 0-137-111-248-248-248z m0 448c-111 0-200-89-200-200 0-110 89-200 200-200 110 0 200 89 200 200 0 111-89 200-200 200z m0-338c23 0 42 19 42 42 0 23-19 42-42 42-23 0-42-19-42-42 0-23 19-42 42-42z m56 254c0 7-5 12-12 12l-88 0c-7 0-12-5-12-12l0-24c0-7 5-12 12-12l12 0 0-64-12 0c-7 0-12-5-12-12l0-24c0-7 5-12 12-12l64 0c7 0 12 5 12 12l0 100 12 0c7 0 12 5 12 12z"/>
    </symbol>
  
    <symbol id="icon-info-circle-1" viewBox="0 0 512 512">
      <path d="m256 8c-137 0-248 111-248 248 0 137 111 248 248 248 137 0 248-111 248-248 0-137-111-248-248-248z m0 110c23 0 42 19 42 42 0 23-19 42-42 42-23 0-42-19-42-42 0-23 19-42 42-42z m56 254c0 7-5 12-12 12l-88 0c-7 0-12-5-12-12l0-24c0-7 5-12 12-12l12 0 0-64-12 0c-7 0-12-5-12-12l0-24c0-7 5-12 12-12l64 0c7 0 12 5 12 12l0 100 12 0c7 0 12 5 12 12z"/>
    </symbol>
  
    <symbol id="icon-question-circle" viewBox="0 0 512 512">
      <path d="m504 256c0 137-111 248-248 248-137 0-248-111-248-248 0-137 111-248 248-248 137 0 248 111 248 248z m-241-166c-55 0-90 23-117 64-3 5-2 12 3 16l35 26c5 4 12 3 16-2 18-22 30-36 57-36 21 0 46 14 46 33 0 15-12 23-32 34-24 14-55 30-55 71l0 4c0 7 5 12 12 12l56 0c7 0 12-5 12-12l0-1c0-29 83-30 83-107 0-58-60-102-116-102z m-7 248c-25 0-46 21-46 46 0 25 21 46 46 46 25 0 46-21 46-46 0-25-21-46-46-46z"/>
    </symbol>
  
    <symbol id="icon-question-circle-1" viewBox="0 0 512 512">
      <path d="m256 8c-137 0-248 111-248 248 0 137 111 248 248 248 137 0 248-111 248-248 0-137-111-248-248-248z m0 448c-111 0-200-89-200-200 0-110 89-200 200-200 110 0 200 89 200 200 0 111-89 200-200 200z m107-255c0 67-72 68-72 93l0 6c0 7-6 12-12 12l-46 0c-6 0-12-5-12-12l0-9c0-35 27-50 48-61 17-10 28-17 28-30 0-17-22-28-40-28-23 0-34 11-49 30-4 5-11 6-16 2l-28-21c-5-4-6-12-3-17 24-35 54-54 101-54 49 0 101 38 101 89z m-65 167c0 23-19 42-42 42-23 0-42-19-42-42 0-23 19-42 42-42 23 0 42 19 42 42z"/>
    </symbol>
  
    <symbol id="icon-map-marker-alt" viewBox="0 0 512 512">
      <path d="m236 502c-145-211-172-233-172-310 0-106 86-192 192-192 106 0 192 86 192 192 0 77-27 99-172 310-10 13-30 13-40 0z m20-230c44 0 80-36 80-80 0-44-36-80-80-80-44 0-80 36-80 80 0 44 36 80 80 80z"/>
    </symbol>
  
    <symbol id="icon-envelope" viewBox="0 0 512 512">
      <path d="m502 191c4-3 10 0 10 5l0 204c0 27-21 48-48 48l-416 0c-26 0-48-21-48-48l0-204c0-5 6-8 10-5 22 17 52 39 154 114 21 15 57 47 92 47 36 3 72-33 92-47 102-75 132-97 154-114z m-246 129c23 4 57-29 73-41 133-97 143-105 174-129 6-5 9-12 9-19l0-19c0-26-21-48-48-48l-416 0c-26 0-48 22-48 48l0 19c0 7 3 14 9 19 31 24 41 32 174 129 16 12 50 41 73 41z"/>
    </symbol>
  
    <symbol id="icon-search" viewBox="0 0 512 512">
      <path d="m509 469l-122-121c-2-3-5-4-8-4l-14 0c32-36 51-84 51-136 0-115-93-208-208-208-115 0-208 93-208 208 0 115 93 208 208 208 52 0 100-19 136-51l0 14c0 3 1 6 4 8l121 122c5 4 12 4 17 0l23-23c4-5 4-12 0-17z m-301-101c-88 0-160-72-160-160 0-88 72-160 160-160 88 0 160 72 160 160 0 88-72 160-160 160z"/>
    </symbol>
  
    <symbol id="icon-times" viewBox="0 0 512 512">
      <path d="m323 256l100-100c12-12 12-32 0-45l-22-22c-13-12-33-12-45 0l-100 100-100-100c-12-12-32-12-45 0l-22 22c-12 13-12 33 0 45l100 100-100 100c-12 12-12 32 0 45l22 22c13 12 33 12 45 0l100-100 100 100c12 12 32 12 45 0l22-22c12-13 12-33 0-45z"/>
    </symbol>

    <symbol id="icon-file-pdf" viewBox="0 0 512 512">
      <path d="M369.9 97.9L286 14C277 5 264.8-.1 252.1-.1H48C21.5 0 0 21.5 0 48v416c0 26.5 21.5 48 48 48h288c26.5 0 48-21.5 48-48V131.9c0-12.7-5.1-25-14.1-34zm-22.6 22.7c2.1 2.1 3.5 4.6 4.2 7.4H256V32.5c2.8.7 5.3 2.1 7.4 4.2l83.9 83.9zM336 480H48c-8.8 0-16-7.2-16-16V48c0-8.8 7.2-16 16-16h176v104c0 13.3 10.7 24 24 24h104v304c0 8.8-7.2 16-16 16zm-22-171.2c-13.5-13.3-55-9.2-73.7-6.7-21.2-12.8-35.2-30.4-45.1-56.6 4.3-18 12-47.2 6.4-64.9-4.4-28.1-39.7-24.7-44.6-6.8-5 18.3-.3 44.4 8.4 77.8-11.9 28.4-29.7 66.9-42.1 88.6-20.8 10.7-54.1 29.3-58.8 52.4-3.5 16.8 22.9 39.4 53.1 6.4 9.1-9.9 19.3-24.8 31.3-45.5 26.7-8.8 56.1-19.8 82-24 21.9 12 47.6 19.9 64.6 19.9 27.7.1 28.9-30.2 18.5-40.6zm-229.2 89c5.9-15.9 28.6-34.4 35.5-40.8-22.1 35.3-35.5 41.5-35.5 40.8zM180 175.5c8.7 0 7.8 37.5 2.1 47.6-5.2-16.3-5-47.6-2.1-47.6zm-28.4 159.3c11.3-19.8 21-43.2 28.8-63.7 9.7 17.7 22.1 31.7 35.1 41.5-24.3 4.7-45.4 15.1-63.9 22.2zm153.4-5.9s-5.8 7-43.5-9.1c41-3 47.7 6.4 43.5 9.1z"></path>
    </symbol>

    <symbol id="icon-file" viewBox="0 0 384 512">
      <path d="M369.9 97.9L286 14C277 5 264.8-.1 252.1-.1H48C21.5 0 0 21.5 0 48v416c0 26.5 21.5 48 48 48h288c26.5 0 48-21.5 48-48V131.9c0-12.7-5.1-25-14.1-34zm-22.6 22.7c2.1 2.1 3.5 4.6 4.2 7.4H256V32.5c2.8.7 5.3 2.1 7.4 4.2l83.9 83.9zM336 480H48c-8.8 0-16-7.2-16-16V48c0-8.8 7.2-16 16-16h176v104c0 13.3 10.7 24 24 24h104v304c0 8.8-7.2 16-16 16z"></path>
    </symbol>

    <symbol id="icon-quote-right" viewBox="0 0 975.036 975.036">
      <path d="M925.036,57.197h-304c-27.6,0-50,22.4-50,50v304c0,27.601,22.4,50,50,50h145.5c-1.9,79.601-20.4,143.3-55.4,191.2
      c-27.6,37.8-69.399,69.1-125.3,93.8c-25.7,11.3-36.8,41.7-24.8,67.101l36,76c11.6,24.399,40.3,35.1,65.1,24.399
      c66.2-28.6,122.101-64.8,167.7-108.8c55.601-53.7,93.7-114.3,114.3-181.9c20.601-67.6,30.9-159.8,30.9-276.8v-239
      C975.036,79.598,952.635,57.197,925.036,57.197z"/>
      <path d="M106.036,913.497c65.4-28.5,121-64.699,166.9-108.6c56.1-53.7,94.4-114.1,115-181.2c20.6-67.1,30.899-159.6,30.899-277.5
      v-239c0-27.6-22.399-50-50-50h-304c-27.6,0-50,22.4-50,50v304c0,27.601,22.4,50,50,50h145.5c-1.9,79.601-20.4,143.3-55.4,191.2
      c-27.6,37.8-69.4,69.1-125.3,93.8c-25.7,11.3-36.8,41.7-24.8,67.101l35.9,75.8C52.336,913.497,81.236,924.298,106.036,913.497z"/>
    </symbol>

    <symbol id="icon-quote-left" viewBox="0 0 123.961 123.961">
      <path d="M49.8,29.032c3.1-1.3,4.4-5,3-8l-4.9-10.3c-1.4-2.899-4.8-4.2-7.8-2.899c-8.5,3.6-15.8,8.3-21.6,14
      C11.4,28.532,6.6,36.232,4,44.732c-2.6,8.601-4,20.3-4,35.2v30.7c0,3.3,2.7,6,6,6h39.3c3.3,0,6-2.7,6-6v-39.3c0-3.301-2.7-6-6-6
      H26.5c0.2-10.101,2.6-18.2,7-24.301C37.1,36.133,42.5,32.133,49.8,29.032z"/>
      <path d="M120.4,29.032c3.1-1.3,4.399-5,3-8l-4.9-10.199c-1.4-2.9-4.8-4.2-7.8-2.9c-8.4,3.6-15.601,8.3-21.5,13.9
      c-7.101,6.8-12,14.5-14.601,23c-2.6,8.399-3.899,20.1-3.899,35.1v30.7c0,3.3,2.7,6,6,6H116c3.3,0,6-2.7,6-6v-39.3
      c0-3.301-2.7-6-6-6H97.1c0.2-10.101,2.601-18.2,7-24.301C107.7,36.133,113.1,32.133,120.4,29.032z"/>
    </symbol>

    <symbol id="icon-twitter" viewBox="0 0 512 512">
      <path d="M459.37 151.716c.325 4.548.325 9.097.325 13.645 0 138.72-105.583 298.558-298.558 298.558-59.452 0-114.68-17.219-161.137-47.106 8.447.974 16.568 1.299 25.34 1.299 49.055 0 94.213-16.568 130.274-44.832-46.132-.975-84.792-31.188-98.112-72.772 6.498.974 12.995 1.624 19.818 1.624 9.421 0 18.843-1.3 27.614-3.573-48.081-9.747-84.143-51.98-84.143-102.985v-1.299c13.969 7.797 30.214 12.67 47.431 13.319-28.264-18.843-46.781-51.005-46.781-87.391 0-19.492 5.197-37.36 14.294-52.954 51.655 63.675 129.3 105.258 216.365 109.807-1.624-7.797-2.599-15.918-2.599-24.04 0-57.828 46.782-104.934 104.934-104.934 30.213 0 57.502 12.67 76.67 33.137 23.715-4.548 46.456-13.32 66.599-25.34-7.798 24.366-24.366 44.833-46.132 57.827 21.117-2.273 41.584-8.122 60.426-16.243-14.292 20.791-32.161 39.308-52.628 54.253z"></path>
    </symbol>

    <symbol id="icon-instagram" viewBox="0 0 448 512">
      <path d="M224.1 141c-63.6 0-114.9 51.3-114.9 114.9s51.3 114.9 114.9 114.9S339 319.5 339 255.9 287.7 141 224.1 141zm0 189.6c-41.1 0-74.7-33.5-74.7-74.7s33.5-74.7 74.7-74.7 74.7 33.5 74.7 74.7-33.6 74.7-74.7 74.7zm146.4-194.3c0 14.9-12 26.8-26.8 26.8-14.9 0-26.8-12-26.8-26.8s12-26.8 26.8-26.8 26.8 12 26.8 26.8zm76.1 27.2c-1.7-35.9-9.9-67.7-36.2-93.9-26.2-26.2-58-34.4-93.9-36.2-37-2.1-147.9-2.1-184.9 0-35.8 1.7-67.6 9.9-93.9 36.1s-34.4 58-36.2 93.9c-2.1 37-2.1 147.9 0 184.9 1.7 35.9 9.9 67.7 36.2 93.9s58 34.4 93.9 36.2c37 2.1 147.9 2.1 184.9 0 35.9-1.7 67.7-9.9 93.9-36.2 26.2-26.2 34.4-58 36.2-93.9 2.1-37 2.1-147.8 0-184.8zM398.8 388c-7.8 19.6-22.9 34.7-42.6 42.6-29.5 11.7-99.5 9-132.1 9s-102.7 2.6-132.1-9c-19.6-7.8-34.7-22.9-42.6-42.6-11.7-29.5-9-99.5-9-132.1s-2.6-102.7 9-132.1c7.8-19.6 22.9-34.7 42.6-42.6 29.5-11.7 99.5-9 132.1-9s102.7-2.6 132.1 9c19.6 7.8 34.7 22.9 42.6 42.6 11.7 29.5 9 99.5 9 132.1s2.7 102.7-9 132.1z"></path>
    </symbol>

    <symbol id="icon-container" viewBox="0 0 640 512">
      <path d="M632 64c4.4 0 8-3.6 8-8V40c0-4.4-3.6-8-8-8H8c-4.4 0-8 3.6-8 8v16c0 4.4 3.6 8 8 8h8v384H8c-4.4 0-8 3.6-8 8v16c0 4.4 3.6 8 8 8h624c4.4 0 8-3.6 8-8v-16c0-4.4-3.6-8-8-8h-8V64h8zm-40 384H48V64h544v384zm-472-64h16c4.4 0 8-3.6 8-8V136c0-4.4-3.6-8-8-8h-16c-4.4 0-8 3.6-8 8v240c0 4.4 3.6 8 8 8zm96 0h16c4.4 0 8-3.6 8-8V136c0-4.4-3.6-8-8-8h-16c-4.4 0-8 3.6-8 8v240c0 4.4 3.6 8 8 8zm96 0h16c4.4 0 8-3.6 8-8V136c0-4.4-3.6-8-8-8h-16c-4.4 0-8 3.6-8 8v240c0 4.4 3.6 8 8 8zm96 0h16c4.4 0 8-3.6 8-8V136c0-4.4-3.6-8-8-8h-16c-4.4 0-8 3.6-8 8v240c0 4.4 3.6 8 8 8zm96 0h16c4.4 0 8-3.6 8-8V136c0-4.4-3.6-8-8-8h-16c-4.4 0-8 3.6-8 8v240c0 4.4 3.6 8 8 8z"></path>
    </symbol>

    <symbol id="icon-truck" viewBox="0 0 640 512">
      <path d="M32 320h336c17.7 0 32-14.3 32-32V64c0-17.7-14.3-32-32-32H32C14.3 32 0 46.3 0 64v224c0 17.7 14.3 32 32 32zm0-256h336v224H32V64zm589.3 141.3l-58.5-58.5c-12-12-28.3-18.7-45.3-18.7H448c-8.8 0-16 7.2-16 16v208H228.7c-12.3-9.9-27.7-16-44.7-16-22.8 0-42.8 10.8-56 27.3-13.2-16.6-33.2-27.4-56-27.4-39.8 0-72 32.2-72 72s32.2 72 72 72c22.8 0 42.8-10.8 56-27.3 13.2 16.5 33.2 27.3 56 27.3 39.8 0 72-32.2 72-72 0-8.5-1.7-16.5-4.4-24h198c-2.7 13.2-2.2 27.6 2.8 42.4 8.4 25.1 29.9 44.9 55.6 51.1 52.8 12.8 100-26.9 100-77.6 0-5.5-.6-10.8-1.6-16H624c8.8 0 16-7.2 16-16V250.5c0-17-6.7-33.2-18.7-45.2zM72 448c-22.1 0-40-17.9-40-40s17.9-40 40-40 40 17.9 40 40-17.9 40-40 40zm112 0c-22.1 0-40-17.9-40-40s17.9-40 40-40 40 17.9 40 40-17.9 40-40 40zm280-288h53.5c8.5 0 16.6 3.3 22.6 9.4l54.6 54.6H464v-64zm64 288c-26.5 0-48-21.5-48-48s21.5-48 48-48 48 21.5 48 48-21.5 48-48 48zm80-96h-16.4c-14.6-19.3-37.5-32-63.6-32s-49 12.7-63.6 32h-.4v-96h144v96zm-504-96h16c4.4 0 8-3.6 8-8V104c0-4.4-3.6-8-8-8h-16c-4.4 0-8 3.6-8 8v144c0 4.4 3.6 8 8 8zm96 0h16c4.4 0 8-3.6 8-8V104c0-4.4-3.6-8-8-8h-16c-4.4 0-8 3.6-8 8v144c0 4.4 3.6 8 8 8zm96 0h16c4.4 0 8-3.6 8-8V104c0-4.4-3.6-8-8-8h-16c-4.4 0-8 3.6-8 8v144c0 4.4 3.6 8 8 8z"></path>
    </symbol>

    <symbol id="icon-recycle" viewBox="0 0 512 512">
      <path d="M201.728 62.049l-43.385 69.459c-3.511 5.622-10.916 7.332-16.537 3.819l-6.781-4.237c-5.619-3.511-7.329-10.912-3.819-16.533l43.387-69.48c37.575-60.12 125.263-60.084 162.816 0l46.217 74.015 12.037-52.14c1.491-6.458 7.934-10.484 14.392-8.993l7.794 1.799c6.458 1.491 10.484 7.934 8.993 14.392l-21.633 93.702c-1.491 6.458-7.934 10.484-14.392 8.993l-93.702-21.633c-6.458-1.491-10.484-7.934-8.993-14.392l1.799-7.794c1.491-6.458 7.934-10.484 14.392-8.993l52.202 12.052-46.251-74.047c-25.002-40.006-83.467-40.099-108.536.011zm295.56 239.071l-52.939-84.78c-3.511-5.623-10.916-7.334-16.538-3.821l-6.767 4.228c-5.62 3.512-7.329 10.913-3.819 16.534l52.966 84.798c26.605 42.568-4.054 97.92-54.272 97.92H310.627l37.858-37.858c4.686-4.686 4.686-12.284 0-16.97l-5.656-5.656c-4.686-4.686-12.284-4.686-16.97 0l-68 68c-4.686 4.686-4.686 12.284 0 16.971l68 68c4.686 4.686 12.284 4.686 16.97 0l5.656-5.657c4.686-4.686 4.686-12.284 0-16.971L310.627 448H415.88c75.274 0 121.335-82.997 81.408-146.88zM41.813 318.069l55.803-89.339 12.044 52.166c1.491 6.458 7.934 10.484 14.392 8.993l7.794-1.799c6.458-1.491 10.484-7.934 8.993-14.392l-21.633-93.702c-1.491-6.458-7.934-10.484-14.392-8.993l-93.702 21.633c-6.458 1.491-10.484 7.934-8.993 14.392l1.799 7.794c1.491 6.458 7.934 10.484 14.392 8.993l52.193-12.05-55.796 89.355C-25.188 364.952 20.781 448 96.115 448H196c6.627 0 12-5.373 12-12v-8c0-6.627-5.373-12-12-12H96.078c-50.199 0-80.887-55.335-54.265-97.931z"></path>
    </symbol>

    <symbol id="icon-star" viewBox="0 0 576 512">
      <path d="M259.3 17.8L194 150.2 47.9 171.5c-26.2 3.8-36.7 36.1-17.7 54.6l105.7 103-25 145.5c-4.5 26.3 23.2 46 46.4 33.7L288 439.6l130.7 68.7c23.2 12.2 50.9-7.4 46.4-33.7l-25-145.5 105.7-103c19-18.5 8.5-50.8-17.7-54.6L382 150.2 316.7 17.8c-11.7-23.6-45.6-23.9-57.4 0z"></path>
    </symbol>
    
    <symbol id="icon-contact" viewBox="0 0 64 64">      
      <path d="M61.2792 1.60205H16.5749C15.0731 1.6038 13.856 2.82085 13.8543 4.32272V16.6533L11.81 13.5869C10.8743 12.1754 8.99245 11.7519 7.54234 12.6266L3.33656 15.1553C1.95922 15.9635 0.948845 17.274 0.517739 18.8117C-1.01651 24.3982 0.121892 34.0229 14.2491 48.1523C25.4838 59.3753 33.8602 62.3979 39.6334 62.3979C40.9699 62.404 42.3014 62.2304 43.5917 61.8815C45.1287 61.4504 46.4393 60.4414 47.2491 59.066L49.7745 54.8558C50.6457 53.4068 50.2226 51.5288 48.8143 50.5934L38.7435 43.8802C37.3621 42.9665 35.5104 43.2669 34.4886 44.5705L31.5566 48.3399C31.2502 48.7433 30.6943 48.8608 30.2507 48.6163L29.6927 48.3089C27.8565 47.3082 25.5712 46.062 20.9556 41.4465C20.4563 40.9471 20.0039 40.4799 19.5793 40.0328H61.2792C62.7773 40.0339 63.994 38.823 63.9999 37.3248V4.32272C63.9981 2.82085 62.7811 1.6038 61.2792 1.60205ZM28.6717 50.1826L29.2137 50.4803C30.5761 51.2422 32.2912 50.8887 33.2413 49.6503L36.1733 45.8808C36.5066 45.4562 37.1097 45.3583 37.5602 45.6557L47.631 52.3688C48.0885 52.6738 48.226 53.2842 47.9435 53.7558L45.4182 57.9659C44.8908 58.8703 44.034 59.5354 43.0272 59.8224C37.9838 61.2094 29.1572 60.0358 15.7607 46.6384C2.36432 33.241 1.19516 24.4152 2.57887 19.3761C2.86557 18.3694 3.53036 17.5127 4.4342 16.9851L8.64437 14.4586C9.11611 14.1768 9.72613 14.3142 10.0313 14.7712L16.7476 24.8419C17.0454 25.2923 16.9475 25.8959 16.5224 26.2289L12.7519 29.1618C11.5137 30.1117 11.1601 31.8264 11.9218 33.1885L12.2205 33.7305C13.2874 35.6872 14.6136 38.1219 19.4479 42.9551C24.2823 47.7884 26.7161 49.1156 28.6717 50.1826ZM61.8661 37.325C61.8626 37.6459 61.6002 37.9035 61.2793 37.9011H17.6546C16.2689 36.3165 15.0739 34.5748 14.0942 32.7116L13.7869 32.1514C13.5418 31.7088 13.6591 31.1535 14.0622 30.8476L17.8328 27.9147C19.1368 26.8932 19.4373 25.0412 18.523 23.6597L15.988 19.855V4.32272C15.9863 4.16656 16.0476 4.01627 16.158 3.90587C16.2684 3.79547 16.4187 3.7342 16.5748 3.73595H61.2792C61.4354 3.7342 61.5857 3.79547 61.6961 3.90587C61.8065 4.01627 61.8677 4.16656 61.866 4.32272V37.325H61.8661Z" fill="#00A4B8"/>
      <path d="M57.6045 6.54204L39.7728 20.0654C39.2683 20.432 38.5852 20.432 38.0807 20.0654L20.2557 6.54204C19.7861 6.18583 19.1165 6.27785 18.7604 6.74746C18.4042 7.21708 18.4962 7.88662 18.9658 8.24271L36.7931 21.7649C38.0614 22.7019 39.7925 22.7019 41.0608 21.7649L58.8934 8.24271C59.1191 8.07167 59.2675 7.81785 59.3059 7.53728C59.3443 7.25671 59.2696 6.9724 59.0982 6.74696C58.7421 6.27822 58.0737 6.18658 57.6045 6.54204Z" fill="#00A4B8"/>
      <path d="M29.8216 21.8545L18.8921 33.5588C18.4902 33.9898 18.5138 34.6651 18.9448 35.0669C19.3758 35.4688 20.0511 35.4451 20.4529 35.0141L31.3826 23.3046C31.7437 22.869 31.7018 22.2272 31.2874 21.842C30.8728 21.4568 30.2296 21.4623 29.8216 21.8545Z" fill="#00A4B8"/>
      <path d="M48.1029 21.8545C47.701 21.4235 47.0259 21.3997 46.5948 21.8017C46.1638 22.2036 46.14 22.8787 46.542 23.3098L57.4684 35.0141C57.8703 35.4451 58.5455 35.4688 58.9766 35.0669C59.4076 34.665 59.4313 33.9898 59.0293 33.5587L48.1029 21.8545Z" fill="#00A4B8"/>
    </symbol>      

    <symbol id="icon-clipboard" viewBox="0 0 68 68"> 
      <path d="M40.0505 24.5099H43.6589C44.1256 24.5099 44.5043 24.1312 44.5043 23.6644C44.5043 23.1972 44.1256 22.819 43.6589 22.819H40.0505C39.5832 22.819 39.2051 23.1972 39.2051 23.6644C39.2051 24.1312 39.5832 24.5099 40.0505 24.5099Z" fill="#00A4B8"/>
      <path d="M24.1594 24.5099H36.8153C37.2825 24.5099 37.6607 24.1312 37.6607 23.6644C37.6607 23.1972 37.2825 22.819 36.8153 22.819H24.1594C23.6926 22.819 23.314 23.1972 23.314 23.6644C23.314 24.1312 23.6926 24.5099 24.1594 24.5099Z" fill="#00A4B8"/>
      <path d="M15.4772 24.5099H20.8596C21.3263 24.5099 21.705 24.1312 21.705 23.6644C21.705 23.1972 21.3263 22.819 20.8596 22.819H15.4772C15.01 22.819 14.6318 23.1972 14.6318 23.6644C14.6318 24.1312 15.01 24.5099 15.4772 24.5099Z" fill="#00A4B8"/>
      <path d="M34.8062 30.2676H19.8161C19.3488 30.2676 18.9707 30.6463 18.9707 31.113C18.9707 31.5797 19.3488 31.9584 19.8161 31.9584H34.8062C35.273 31.9584 35.6517 31.5797 35.6517 31.113C35.6517 30.6463 35.273 30.2676 34.8062 30.2676Z" fill="#00A4B8"/>
      <path d="M15.4772 31.9584H17.0464C17.5132 31.9584 17.8918 31.5797 17.8918 31.113C17.8918 30.6463 17.5132 30.2676 17.0464 30.2676H15.4772C15.01 30.2676 14.6318 30.6463 14.6318 31.113C14.6318 31.5797 15.01 31.9584 15.4772 31.9584Z" fill="#00A4B8"/>
      <path d="M15.4772 39.8715H25.5176C25.9849 39.8715 26.3631 39.4928 26.3631 39.0261C26.3631 38.5593 25.9849 38.1807 25.5176 38.1807H15.4772C15.01 38.1807 14.6318 38.5593 14.6318 39.0261C14.6318 39.4928 15.01 39.8715 15.4772 39.8715Z" fill="#00A4B8"/>
      <path d="M19.5359 45.4938H15.4772C15.01 45.4938 14.6318 45.8725 14.6318 46.3392C14.6318 46.8065 15.01 47.1847 15.4772 47.1847H19.5359C20.0026 47.1847 20.3813 46.8065 20.3813 46.3392C20.3813 45.8725 20.0026 45.4938 19.5359 45.4938Z" fill="#00A4B8"/>
      <path d="M64.4715 18.7273C63.3757 17.064 61.14 16.6012 59.4745 17.6931L58.5564 18.2964H58.5542L56.9371 19.3603V6.92403C56.9349 4.93213 55.3206 3.31781 53.3287 3.31561H34.8193C33.8545 1.29014 31.8114 0 29.568 0C27.324 0 25.2809 1.29014 24.316 3.31561H5.80666C3.81477 3.31781 2.20044 4.93213 2.19824 6.92403V64.3929C2.20154 66.3843 3.81532 67.9975 5.80666 68.0002H53.3287C55.32 67.998 56.9338 66.3843 56.9371 64.3929V29.7871L64.2591 24.976C65.9224 23.8802 66.3853 21.645 65.2933 19.979L64.4715 18.7273ZM33.0878 43.4337L32.0882 41.9118L60.7052 23.1085L61.7052 24.6304L33.0878 43.4337ZM48.8385 50.7623H44.3908C42.3989 50.7645 40.7845 52.3782 40.7823 54.3701V58.7007H10.8329C10.5373 58.7001 10.2979 58.4601 10.2974 58.1646V13.1518C10.2979 12.8557 10.5373 12.6163 10.8329 12.6152H14.6318V14.9362C14.6318 15.4029 15.0099 15.7816 15.4772 15.7816H43.6587C44.1255 15.7816 44.5041 15.4029 44.5041 14.9362V12.6152H48.3024C48.598 12.6157 48.838 12.8557 48.8385 13.1518V24.6816L28.5249 38.0288C28.5117 38.0376 28.4996 38.0469 28.487 38.0568C28.4793 38.0623 28.4716 38.0678 28.4639 38.0739C28.438 38.0943 28.4132 38.1163 28.3895 38.1394L28.3884 38.1405C28.3659 38.1636 28.3444 38.1884 28.3246 38.2142C28.3196 38.2203 28.3152 38.2264 28.3103 38.2324C28.2943 38.2539 28.2795 38.2764 28.2657 38.2996C28.263 38.3034 28.2602 38.3067 28.2575 38.3111L24.4168 44.9297L23.2752 45.6793C22.885 45.9358 22.7766 46.4598 23.0331 46.85C23.2895 47.2403 23.8135 47.3487 24.2038 47.0922L25.3453 46.3425L32.9441 45.4443C32.9485 45.4443 32.9529 45.4426 32.9573 45.4421C32.9711 45.4399 32.9843 45.4371 32.998 45.4344C33.0228 45.43 33.047 45.425 33.0707 45.4184C33.085 45.4146 33.0993 45.4096 33.1131 45.4041C33.1362 45.3964 33.1588 45.3882 33.1808 45.3788C33.1945 45.3727 33.2088 45.3661 33.2221 45.3595C33.2435 45.3485 33.2644 45.337 33.2848 45.3243C33.2931 45.3194 33.3013 45.3161 33.3096 45.31L48.8385 35.1078V50.7623ZM47.6772 52.4531L42.4732 57.6571V54.3701C42.4743 53.3117 43.3323 52.4542 44.3908 52.4531H47.6772ZM31.3876 43.9252L26.6283 44.4883L29.0341 40.3426L30.2108 42.1342L31.3876 43.9252ZM31.1597 40.499L30.1602 38.9771L56.5634 21.6291L56.565 21.628L58.7771 20.1743L59.7772 21.6962L31.1597 40.499ZM53.3287 5.00644C54.3871 5.00754 55.2446 5.86506 55.2463 6.92403V20.471L50.5294 23.5709V13.1518C50.5277 11.9222 49.5315 10.926 48.3024 10.9243H44.5041V8.30553C44.5041 7.83824 44.1255 7.46012 43.6587 7.46012H35.3862V5.81883C35.3857 5.54693 35.3664 5.27558 35.3284 5.00644H53.3287ZM29.568 1.69138C31.8466 1.69358 33.6937 3.54072 33.6959 5.81993V8.30553C33.6959 8.77227 34.0746 9.15094 34.5414 9.15094H42.8139V14.0908H16.3226V9.15094H24.5945C25.0613 9.15094 25.44 8.77227 25.44 8.30553V5.81883C25.4427 3.54017 27.2893 1.69413 29.568 1.69138ZM55.2463 64.3929C55.2441 65.4508 54.3866 66.3083 53.3287 66.3094H5.80666C4.74879 66.3077 3.89127 65.4508 3.88907 64.3929V6.92403C3.89017 5.86561 4.74824 5.00754 5.80666 5.00644H23.8069C23.7689 5.27558 23.7497 5.54693 23.7491 5.81883V7.46012H15.4772C15.0099 7.46012 14.6318 7.83824 14.6318 8.30553V10.9243H10.8329C9.60387 10.9265 8.60819 11.9222 8.60654 13.1518V58.1651C8.60819 59.3936 9.60387 60.3899 10.8329 60.3915H41.0928C41.205 60.3904 41.3168 60.3821 41.4274 60.3667C41.4929 60.3827 41.5601 60.3909 41.6278 60.3915C41.8721 60.3915 42.1044 60.2853 42.264 60.1014C42.4847 59.9842 42.6862 59.835 42.8629 59.6584L49.7962 52.7261C50.2668 52.2577 50.5305 51.6203 50.5288 50.956V33.9965L55.2457 30.8967L55.2463 64.3929ZM63.3306 23.5632L63.1181 23.7024L60.1905 19.2464L60.403 19.1071C61.288 18.5254 62.4769 18.7714 63.0581 19.6564L63.8799 20.9075C64.46 21.7925 64.2139 22.9803 63.3306 23.5626V23.5632Z" fill="#00A4B8"/>
    </symbol>   

    <symbol id="icon-review" viewBox="0 0 69 69">
      <path d="M16.5155 37.519C14.822 37.519 13.4443 38.8966 13.4443 40.5899C13.4443 42.2833 14.822 43.6609 16.5155 43.6609C18.2088 43.6609 19.5864 42.2833 19.5864 40.5899C19.5864 38.8966 18.2087 37.519 16.5155 37.519ZM16.5155 41.6357C15.939 41.6357 15.4699 41.1666 15.4699 40.5902C15.4699 40.0138 15.939 39.5447 16.5155 39.5447C17.092 39.5447 17.561 40.0138 17.561 40.5902C17.561 41.1666 17.0919 41.6357 16.5155 41.6357Z" fill="#00A4B8"/>
      <path d="M44.3007 57.0482C44.1653 56.6306 43.7763 56.3482 43.3377 56.3482H37.322L35.463 50.627C35.3291 50.2145 34.9336 49.9272 34.4999 49.9272C34.0662 49.9272 33.6708 50.2144 33.5367 50.627L31.6777 56.3482H25.6622C25.2236 56.3482 24.8346 56.6307 24.699 57.0481C24.5635 57.4653 24.712 57.9226 25.067 58.1802L29.9336 61.7162L28.0747 67.4374C27.9449 67.8365 28.0813 68.2859 28.4109 68.5456C28.763 68.8231 29.2703 68.8332 29.6331 68.5696L34.4997 65.0336L39.3664 68.5696C39.747 68.8461 40.282 68.8196 40.6337 68.5076C40.932 68.2431 41.048 67.8167 40.9247 67.4376L39.0657 61.7164L43.9324 58.1804C44.2878 57.9227 44.4363 57.4654 44.3007 57.0482ZM37.2804 60.5099C36.9254 60.7677 36.7769 61.2249 36.9124 61.6421L38.0356 65.0988L35.095 62.9625C34.7441 62.7074 34.2554 62.7074 33.9046 62.9625L30.964 65.0988L32.0872 61.6421C32.2227 61.2249 32.0742 60.7676 31.7193 60.5099L28.7788 58.3736H32.4134C32.8521 58.3736 33.241 58.0912 33.3766 57.6738L34.4997 54.217L35.6229 57.6738C35.7585 58.0912 36.1474 58.3736 36.586 58.3736H40.2207L37.2804 60.5099Z" fill="#00A4B8"/>
      <path d="M68.9501 57.0479C68.8146 56.6305 68.4256 56.348 67.987 56.348H61.9714L60.1125 50.6268C59.9785 50.2143 59.583 49.927 59.1493 49.927C58.7156 49.927 58.3202 50.2142 58.1861 50.6268L56.3272 56.348H50.3116C49.873 56.348 49.484 56.6305 49.3485 57.0479C49.2129 57.4651 49.3614 57.9224 49.7164 58.1801L54.583 61.716L52.7241 67.4372C52.5943 67.8363 52.7307 68.2857 53.0603 68.5454C53.4125 68.8229 53.9197 68.833 54.2825 68.5694L59.1492 65.0334L64.0158 68.5694C64.3965 68.846 64.9314 68.8194 65.2833 68.5074C65.5815 68.2429 65.6976 67.8165 65.5742 67.4374L63.7153 61.7162L68.5819 58.1802C68.9373 57.9224 69.0858 57.4651 68.9501 57.0479ZM61.9298 60.5099C61.5748 60.7677 61.4263 61.2248 61.5619 61.6421L62.6849 65.0988L59.7446 62.9625C59.3894 62.7045 58.9089 62.7044 58.554 62.9625L55.6134 65.0988L56.7366 61.6421C56.8722 61.2248 56.7236 60.7676 56.3687 60.5099L53.4282 58.3736H57.063C57.5016 58.3736 57.8906 58.0911 58.0262 57.6737L59.1493 54.217L60.2724 57.6737C60.408 58.0911 60.7969 58.3736 61.2356 58.3736H64.8702L61.9298 60.5099Z" fill="#00A4B8"/>
      <path d="M19.6514 57.0482C19.5157 56.6306 19.1268 56.3482 18.6881 56.3482H12.6726L10.8136 50.627C10.6781 50.2097 10.2891 49.9272 9.85047 49.9272C9.4118 49.9272 9.02287 50.2097 8.8873 50.627L7.02834 56.3482H1.0128C0.574143 56.3482 0.185209 56.6307 0.0496349 57.0481C-0.0859394 57.4653 0.0625724 57.9226 0.417545 58.1802L5.2842 61.7162L3.42524 67.4374C3.28967 67.8547 3.43818 68.3119 3.79315 68.5696C4.14799 68.8275 4.6287 68.8275 4.98367 68.5696L9.85033 65.0336L14.717 68.5696C15.0977 68.8461 15.6326 68.8196 15.9843 68.5076C16.2826 68.2431 16.3986 67.8167 16.2753 67.4376L14.4163 61.7164L19.283 58.1804C19.6385 57.9227 19.787 57.4654 19.6514 57.0482ZM12.631 60.5099C12.276 60.7677 12.1275 61.2249 12.263 61.6421L13.3862 65.0988L10.4456 62.9625C10.0947 62.7074 9.606 62.7074 9.25507 62.9625L6.31475 65.0987L7.43776 61.642C7.57333 61.2247 7.42482 60.7675 7.06985 60.5098L4.1294 58.3735H7.76402C8.20269 58.3735 8.59162 58.091 8.72719 57.6736L9.85033 54.2169L10.9735 57.6736C11.109 58.091 11.498 58.3735 11.9366 58.3735H15.5713L12.631 60.5099Z" fill="#00A4B8"/>
      <path d="M60.8019 25.4839C61.848 24.6421 62.5184 23.3515 62.5184 21.9074C62.5184 19.377 60.4597 17.3183 57.9294 17.3183H41.6395C42.1458 16.2143 42.7302 14.5325 43.0643 12.1948C43.8403 6.76249 42.6677 3.87904 41.5474 2.4167C40.5992 1.17901 39.3253 0.430524 37.8636 0.252364C36.6302 0.100888 35.504 1.0805 35.4711 2.31953C35.2815 4.26744 34.5878 9.6113 33.5944 11.5986C31.042 16.7032 24.9568 19.7466 23.0774 20.5886C22.4197 20.0234 21.5656 19.6807 20.6325 19.6807H12.3991C10.3275 19.6807 8.64209 21.366 8.64209 23.4377V44.0206C8.64209 46.0923 10.3275 47.7776 12.3991 47.7776H20.6322C21.7406 47.7776 22.7383 47.2947 23.4264 46.5287C24.4952 47.2035 26.2202 47.9552 28.6025 47.9552H55.0682C57.5987 47.9552 59.6572 45.8965 59.6572 43.3662C59.6572 42.2062 59.2246 41.1454 58.5122 40.3365C60.0362 39.5892 61.0876 38.0215 61.0876 36.2131C61.0876 35.0532 60.655 33.9924 59.9426 33.1834C61.4666 32.4363 62.518 30.8685 62.518 29.0601C62.5184 27.6163 61.8478 26.3256 60.8019 25.4839ZM20.6322 45.7521H12.3991C11.4443 45.7521 10.6675 44.9753 10.6675 44.0205V23.4376C10.6675 22.4828 11.4443 21.706 12.3991 21.706H20.6322C21.1157 21.706 21.553 21.9057 21.8674 22.2264V44.8105C21.8674 44.9316 21.8894 45.0505 21.9309 45.1621C21.6133 45.5228 21.1496 45.7521 20.6322 45.7521ZM53.6744 26.4965H57.9298C59.3435 26.4965 60.4934 27.6467 60.4934 29.0601C60.4934 30.4736 59.3433 31.6238 57.9298 31.6238H53.6744C53.1151 31.6238 52.6617 32.0771 52.6617 32.6365C52.6617 33.196 53.1151 33.6493 53.6744 33.6493H56.4991C57.9128 33.6493 59.0628 34.7995 59.0628 36.2129C59.0628 37.6264 57.9127 38.7766 56.4991 38.7766H52.898C52.3388 38.7766 51.8853 39.2299 51.8853 39.7894C51.8853 40.3488 52.3388 40.8021 52.898 40.8021H55.0684C56.482 40.8021 57.6321 41.9523 57.6321 43.3659C57.6321 44.7795 56.482 45.9296 55.0684 45.9296H28.6028C26.5126 45.9296 25.0955 45.2293 24.3261 44.7036C24.3671 44.4818 24.3896 44.2536 24.3896 44.0202V23.4376C24.3896 23.0416 24.3276 22.6601 24.2136 22.3016C26.5865 21.2126 32.6616 17.9926 35.4059 12.5043C36.7785 9.75927 37.4628 2.76898 37.4912 2.47276C37.4942 2.44069 37.4958 2.40821 37.4958 2.376C37.4958 2.3415 37.509 2.31212 37.535 2.28921C37.5714 2.25727 37.6065 2.26132 37.6182 2.2628C38.2521 2.34015 39.1695 2.64338 39.9397 3.64846C40.8239 4.80259 41.7358 7.17244 41.0593 11.9084C40.4859 15.9226 39.1262 17.6788 39.1177 17.6897C38.5869 18.3384 39.0649 19.3438 39.9014 19.3438H57.9297C59.3433 19.3438 60.4933 20.494 60.4933 21.9076C60.4933 23.3213 59.3432 24.4712 57.9297 24.4712H53.6743C53.115 24.4712 52.6615 24.9246 52.6615 25.484C52.6615 26.0434 53.115 26.4965 53.6744 26.4965Z" fill="#00A4B8"/>
    </symbol>

    <symbol id="icon-wall" viewBox="0 0 71 71">
      <path d="M1.18359 71.1371H57.9835C58.6373 71.1371 59.1671 70.6074 59.1671 69.9541V59.3039H67.45C68.1039 59.3039 68.6336 58.7742 68.6336 58.1209V46.2872C68.6336 45.6339 68.1039 45.1041 67.45 45.1041H59.1671V34.454C59.1671 33.8001 58.6373 33.2704 57.9835 33.2704H55.8118C55.9787 32.4968 55.8021 31.6886 55.3281 31.0549L49.9811 23.9273L52.4501 22.0753C53.547 21.2541 54.1597 19.9378 54.0822 18.5695L53.9636 16.4385C53.9311 15.8605 54.19 15.3047 54.6532 14.9575L57.1216 13.106L58.1606 14.4906C58.3486 14.7414 58.6286 14.9077 58.9396 14.9521C58.9948 14.9597 59.0506 14.964 59.1069 14.9635C59.3632 14.964 59.6123 14.8806 59.8171 14.7267L69.5805 7.40257C71.1481 6.22656 71.4661 4.00184 70.2901 2.43366L69.6325 1.55612C68.4549 -0.00990297 66.2312 -0.326791 64.6625 0.84759L54.9002 8.17122C54.3774 8.56341 54.2713 9.30552 54.6635 9.82825L55.7019 11.2128L53.2334 13.0648C52.1365 13.886 51.5233 15.2018 51.6013 16.5701L51.7194 18.7011C51.7524 19.2791 51.4935 19.8354 51.0304 20.1821L48.5619 22.0341L43.2143 14.9066C42.6548 14.1488 41.7458 13.7311 40.806 13.7999C39.9095 13.8649 39.1083 14.3849 38.6831 15.1774L28.9598 33.2704H1.18359C0.529772 33.2704 0 33.8001 0 34.454V46.2872C0 46.941 0.529772 47.4708 1.18359 47.4708H9.46656V56.9373H1.18359C0.529772 56.9373 0 57.4671 0 58.1209V69.9541C0 70.6074 0.529772 71.1371 1.18359 71.1371ZM66.0828 2.74025C66.605 2.34807 67.3466 2.4537 67.7393 2.97643L68.3969 3.85396C68.7885 4.37669 68.6824 5.11772 68.1602 5.50991L59.3431 12.1245L57.2657 9.35427L66.0828 2.74025ZM21.3003 59.3039H37.8668V68.7705H21.3003V59.3039ZM30.7669 47.4708H47.3333V56.9373H30.7669V47.4708ZM56.8004 68.7705H40.2334V59.3039H56.8004V68.7705ZM66.267 56.9373H49.7V47.4708H66.267V56.9373ZM56.8004 45.1041H40.2334V38.2133L52.3456 35.637H56.8004V45.1041ZM40.7686 16.2987C40.8087 16.2158 40.8921 16.1628 40.9842 16.1601L41.0075 16.159C41.1332 16.1611 41.2496 16.2234 41.3211 16.3263L46.6676 23.4539L41.7859 27.1162C41.2632 27.5084 41.157 28.25 41.5492 28.7733C41.9414 29.296 42.6829 29.4016 43.2062 29.01L48.0879 25.3476L53.4349 32.4752C53.52 32.5792 53.5449 32.7195 53.4999 32.8457C53.4717 32.9334 53.3975 32.9979 53.3065 33.0142L29.8303 38.0064C29.6846 38.0291 29.5383 37.9668 29.4543 37.8455C29.3601 37.7317 29.3411 37.5736 29.4056 37.4403L40.7686 16.2987ZM27.5617 39.2658C28.1922 40.133 29.2745 40.5463 30.3227 40.321L37.8668 38.7165V45.1041H21.3003V35.637H27.6873L27.3206 36.3195C26.8136 37.2637 26.9084 38.417 27.5617 39.2658ZM2.36664 40.3708H4.73328C5.3871 40.3708 5.91687 39.8411 5.91687 39.1872C5.91687 38.534 5.3871 38.0042 4.73328 38.0042H2.36664V35.637H18.9337V45.1041H2.36664V40.3708ZM11.8332 47.4708H28.4002V56.9373H11.8332V47.4708ZM2.36664 59.3039H18.9337V68.7705H2.36664V59.3039Z" fill="#00A4B8"/>
      <path d="M15.3836 39.1873C15.3836 38.534 14.8538 38.0042 14.2 38.0042H9.46674C8.81346 38.0042 8.28369 38.534 8.28369 39.1873C8.28369 39.8411 8.81346 40.3708 9.46674 40.3708H14.2C14.8538 40.3708 15.3836 39.8411 15.3836 39.1873Z" fill="#00A4B8"/>
    </symbol>

    <symbol id="icon-curved-arrow" viewBox="0 0 94 95">
      <path d="M77.2627 39.4238L74.9685 47.981C68.6443 33.1172 52.9759 23.6265 36.1967 25.8329C29.8028 26.6738 23.7298 29.1768 18.6318 33.0693C13.6902 36.844 9.74954 41.847 7.23633 47.5378L12.0168 49.6492C16.5282 39.4347 25.8221 32.468 36.8782 31.0145C52.8455 28.9148 67.6428 39.1548 71.6363 54.3396L57.8318 50.6385L56.4785 55.6863L76.8489 61.1477L82.3103 40.7772L77.2627 39.4238Z" fill="black" fill-opacity="0.06"/>      
    </symbol>
    
    <symbol id="icon-arrow-right" viewBox="0 0 512 512">
      <path d="M506.134,241.843c-0.006-0.006-0.011-0.013-0.018-0.019l-104.504-104c-7.829-7.791-20.492-7.762-28.285,0.068 c-7.792,7.829-7.762,20.492,0.067,28.284L443.558,236H20c-11.046,0-20,8.954-20,20c0,11.046,8.954,20,20,20h423.557 l-70.162,69.824c-7.829,7.792-7.859,20.455-0.067,28.284c7.793,7.831,20.457,7.858,28.285,0.068l104.504-104 c0.006-0.006,0.011-0.013,0.018-0.019C513.968,262.339,513.943,249.635,506.134,241.843z"/>
    </symbol>

    <symbol id="icon-angle-right" viewBox="0 0 13 22">
    <path d="M12.6552 11.9712L3.12172 21.4229C2.66193 21.8787 1.91649 21.8787 1.45675 21.4229L0.344831 20.3205C-0.114174 19.8654 -0.115057 19.1279 0.342869 18.6717L7.89832 11.1458L0.342869 3.61988C-0.115057 3.16374 -0.114174 2.4262 0.344831 1.97113L1.45675 0.868742C1.91654 0.412893 2.66198 0.412893 3.12172 0.868742L12.6552 10.3205C13.1149 10.7763 13.1149 11.5153 12.6552 11.9712Z" fill="black"/>
    </symbol>

    <symbol id="icon-angle-left" viewBox="0 0 13 22">
      <path d="M0.344724 10.3202L9.87829 0.868634C10.3379 0.412929 11.0835 0.412929 11.5432 0.868634L12.6552 1.97118C13.1144 2.42639 13.1148 3.16369 12.6572 3.61988L5.10145 11.1456L12.6567 18.6717C13.1148 19.1279 13.1139 19.8652 12.6547 20.3204L11.5427 21.423C11.083 21.8787 10.3374 21.8787 9.8778 21.423L0.344724 11.9709C-0.114908 11.5152 -0.114908 10.7759 0.344724 10.3202Z" fill="black"/>
    </symbol>

    <symbol id="icon-menu" viewBox="0 0 43 35">
      <path d="M8.0625 4.03846C8.0625 6.26887 6.25768 8.07692 4.03125 8.07692C1.80482 8.07692 0 6.26887 0 4.03846C0 1.80805 1.80482 0 4.03125 0C6.25768 0 8.0625 1.80805 8.0625 4.03846ZM4.03125 13.4615C1.80482 13.4615 0 15.2696 0 17.5C0 19.7304 1.80482 21.5385 4.03125 21.5385C6.25768 21.5385 8.0625 19.7304 8.0625 17.5C8.0625 15.2696 6.25768 13.4615 4.03125 13.4615ZM4.03125 26.9231C1.80482 26.9231 0 28.7311 0 30.9615C0 33.1919 1.80482 35 4.03125 35C6.25768 35 8.0625 33.1919 8.0625 30.9615C8.0625 28.7311 6.25768 26.9231 4.03125 26.9231ZM12.0938 7.06731H41.6562C42.3984 7.06731 43 6.46465 43 5.72115V2.35577C43 1.61227 42.3984 1.00962 41.6562 1.00962H12.0938C11.3516 1.00962 10.75 1.61227 10.75 2.35577V5.72115C10.75 6.46465 11.3516 7.06731 12.0938 7.06731ZM12.0938 20.5288H41.6562C42.3984 20.5288 43 19.9262 43 19.1827V15.8173C43 15.0738 42.3984 14.4712 41.6562 14.4712H12.0938C11.3516 14.4712 10.75 15.0738 10.75 15.8173V19.1827C10.75 19.9262 11.3516 20.5288 12.0938 20.5288ZM12.0938 33.9904H41.6562C42.3984 33.9904 43 33.3877 43 32.6442V29.2788C43 28.5353 42.3984 27.9327 41.6562 27.9327H12.0938C11.3516 27.9327 10.75 28.5353 10.75 29.2788V32.6442C10.75 33.3877 11.3516 33.9904 12.0938 33.9904Z" fill="white"/>
    </symbol>

    <symbol id="icon-close" viewBox="0 0 492 492">
      <path d="M300.188,246L484.14,62.04c5.06-5.064,7.852-11.82,7.86-19.024c0-7.208-2.792-13.972-7.86-19.028L468.02,7.872
        c-5.068-5.076-11.824-7.856-19.036-7.856c-7.2,0-13.956,2.78-19.024,7.856L246.008,191.82L62.048,7.872
        c-5.06-5.076-11.82-7.856-19.028-7.856c-7.2,0-13.96,2.78-19.02,7.856L7.872,23.988c-10.496,10.496-10.496,27.568,0,38.052
        L191.828,246L7.872,429.952c-5.064,5.072-7.852,11.828-7.852,19.032c0,7.204,2.788,13.96,7.852,19.028l16.124,16.116
        c5.06,5.072,11.824,7.856,19.02,7.856c7.208,0,13.968-2.784,19.028-7.856l183.96-183.952l183.952,183.952
        c5.068,5.072,11.824,7.856,19.024,7.856h0.008c7.204,0,13.96-2.784,19.028-7.856l16.12-16.116
        c5.06-5.064,7.852-11.824,7.852-19.028c0-7.204-2.792-13.96-7.852-19.028L300.188,246z"/>
    </symbol>

    <symbol id="icon-user" viewBox="0 0 480 480" style="enable-background:new 0 0 512 512">
      <path d="M240,0C107.664,0,0,107.664,0,240c0,57.96,20.656,111.184,54.992,152.704c0.088,0.12,0.096,0.272,0.192,0.384    c24.792,29.896,55.928,52.816,90.624,67.624c0.4,0.168,0.792,0.352,1.192,0.52c2.808,1.184,5.648,2.28,8.496,3.352    c1.12,0.424,2.24,0.856,3.376,1.264c2.456,0.88,4.928,1.712,7.416,2.512c1.592,0.512,3.184,1.016,4.792,1.496    c2.2,0.656,4.408,1.288,6.632,1.888c1.952,0.528,3.92,1.016,5.888,1.488c1.992,0.48,3.992,0.96,6,1.384    c2.24,0.48,4.504,0.904,6.776,1.32c1.824,0.336,3.64,0.688,5.48,0.984c2.52,0.408,5.056,0.728,7.6,1.056    c1.64,0.208,3.272,0.448,4.92,0.624c2.88,0.304,5.784,0.52,8.696,0.72c1.352,0.096,2.696,0.24,4.056,0.312    c4.248,0.24,8.544,0.368,12.872,0.368s8.624-0.128,12.888-0.352c1.36-0.072,2.704-0.216,4.056-0.312    c2.912-0.208,5.816-0.416,8.696-0.72c1.648-0.176,3.28-0.416,4.92-0.624c2.544-0.328,5.08-0.648,7.6-1.056    c1.832-0.296,3.656-0.648,5.48-0.984c2.264-0.416,4.528-0.84,6.776-1.32c2.008-0.432,4-0.904,6-1.384    c1.968-0.48,3.936-0.968,5.888-1.488c2.224-0.592,4.432-1.232,6.632-1.888c1.608-0.48,3.2-0.984,4.792-1.496    c2.488-0.8,4.96-1.632,7.416-2.512c1.128-0.408,2.248-0.84,3.376-1.264c2.856-1.072,5.688-2.176,8.496-3.352    c0.4-0.168,0.792-0.352,1.192-0.52c34.688-14.808,65.832-37.728,90.624-67.624c0.096-0.112,0.104-0.272,0.192-0.384    C459.344,351.184,480,297.96,480,240C480,107.664,372.336,0,240,0z M337.256,441.76c-0.12,0.056-0.232,0.12-0.352,0.176    c-2.856,1.376-5.76,2.672-8.688,3.936c-0.664,0.28-1.32,0.568-1.984,0.848c-2.56,1.072-5.152,2.088-7.76,3.064    c-1.088,0.408-2.176,0.808-3.272,1.192c-2.312,0.824-4.632,1.616-6.976,2.368c-1.456,0.464-2.92,0.904-4.384,1.336    c-2.08,0.624-4.168,1.224-6.28,1.784c-1.776,0.472-3.568,0.904-5.36,1.328c-1.88,0.448-3.752,0.904-5.648,1.304    c-2.072,0.44-4.16,0.816-6.24,1.192c-1.688,0.312-3.368,0.64-5.072,0.912c-2.344,0.368-4.712,0.664-7.072,0.96    c-1.496,0.192-2.984,0.416-4.496,0.576c-2.696,0.288-5.416,0.472-8.128,0.664c-1.208,0.08-2.408,0.216-3.632,0.28    c-3.96,0.208-7.928,0.32-11.912,0.32s-7.952-0.112-11.904-0.32c-1.216-0.064-2.416-0.192-3.632-0.28    c-2.72-0.184-5.432-0.376-8.128-0.664c-1.512-0.16-3-0.384-4.496-0.576c-2.36-0.296-4.728-0.592-7.072-0.96    c-1.704-0.272-3.384-0.6-5.072-0.912c-2.088-0.376-4.176-0.76-6.24-1.192c-1.896-0.4-3.776-0.856-5.648-1.304    c-1.792-0.432-3.584-0.856-5.36-1.328c-2.104-0.56-4.2-1.168-6.28-1.784c-1.464-0.432-2.928-0.872-4.384-1.336    c-2.344-0.752-4.672-1.544-6.976-2.368c-1.096-0.392-2.184-0.792-3.272-1.192c-2.608-0.976-5.2-1.992-7.76-3.064    c-0.664-0.272-1.312-0.56-1.976-0.84c-2.928-1.256-5.832-2.56-8.696-3.936c-0.12-0.056-0.232-0.112-0.352-0.176    c-27.912-13.504-52.568-32.672-72.576-55.952c15.464-56.944,59.24-102.848,115.56-121.112c1.112,0.68,2.272,1.288,3.416,1.928    c0.672,0.376,1.336,0.776,2.016,1.136c2.384,1.264,4.8,2.448,7.272,3.512c1.896,0.832,3.856,1.536,5.808,2.256    c0.384,0.136,0.768,0.288,1.152,0.424c10.848,3.84,22.456,6.04,34.6,6.04s23.752-2.2,34.592-6.04    c0.384-0.136,0.768-0.288,1.152-0.424c1.952-0.72,3.912-1.424,5.808-2.256c2.472-1.064,4.888-2.248,7.272-3.512    c0.68-0.368,1.344-0.76,2.016-1.136c1.144-0.64,2.312-1.248,3.432-1.936c56.32,18.272,100.088,64.176,115.56,121.112    C389.824,409.08,365.168,428.248,337.256,441.76z M152,176c0-48.52,39.48-88,88-88s88,39.48,88,88    c0,30.864-16.008,58.024-40.128,73.736c-3.152,2.048-6.432,3.88-9.8,5.48c-0.4,0.192-0.792,0.392-1.192,0.576    c-23.168,10.536-50.592,10.536-73.76,0c-0.4-0.184-0.8-0.384-1.192-0.576c-3.376-1.6-6.648-3.432-9.8-5.48    C168.008,234.024,152,206.864,152,176z M421.832,370.584c-18.136-53.552-59.512-96.832-112.376-117.392    C330.6,234.144,344,206.64,344,176c0-57.344-46.656-104-104-104s-104,46.656-104,104c0,30.64,13.4,58.144,34.552,77.192    c-52.864,20.568-94.24,63.84-112.376,117.392C31.672,333.792,16,288.704,16,240C16,116.488,116.488,16,240,16s224,100.488,224,224    C464,288.704,448.328,333.792,421.832,370.584z"/>
    </symbol>



</svg>
