<svg width="134" height="45" viewBox="0 0 134 45" fill="none" xmlns="http://www.w3.org/2000/svg">
<rect width="133.5" height="44.5434" rx="22.2717" fill="#30BCED" fill-opacity="0.18"/>
<path d="M67.3093 24.1912C66.7163 24.1884 66.1357 24.3618 65.6412 24.6896C65.1467 25.0173 64.7606 25.4846 64.5316 26.0322C64.3027 26.5799 64.2414 27.1832 64.3553 27.7658C64.4693 28.3484 64.7534 28.884 65.1718 29.3047C65.5901 29.7255 66.1239 30.0125 66.7053 30.1294C67.2868 30.2462 67.8898 30.1877 68.438 29.9612C68.9862 29.7347 69.4549 29.3504 69.7846 28.857C70.1144 28.3636 70.2905 27.7833 70.2905 27.1897C70.2968 26.7954 70.2241 26.4038 70.0767 26.0381C69.9293 25.6724 69.7101 25.34 69.4322 25.0605C69.1543 24.781 68.8233 24.5601 68.4587 24.4108C68.0941 24.2615 67.7032 24.1868 67.3093 24.1912ZM67.3093 29.0081C66.9437 29.0379 66.5775 28.9566 66.2588 28.7748C65.9401 28.593 65.6835 28.3192 65.5227 27.9891C65.3619 27.659 65.3044 27.2881 65.3576 26.9248C65.4107 26.5614 65.5722 26.2226 65.8208 25.9526C66.0694 25.6826 66.3937 25.4939 66.7511 25.4113C67.1086 25.3286 67.4826 25.3559 67.8244 25.4894C68.1661 25.623 68.4596 25.8566 68.6666 26.1598C68.8736 26.463 68.9843 26.8216 68.9844 27.1889C68.9961 27.419 68.9617 27.6491 68.8835 27.8658C68.8052 28.0825 68.6846 28.2814 68.5286 28.4509C68.3726 28.6204 68.1844 28.757 67.9751 28.8528C67.7657 28.9486 67.5394 29.0017 67.3093 29.0089V29.0081ZM60.8077 24.1912C60.2146 24.1884 59.6341 24.3618 59.1396 24.6896C58.6451 25.0173 58.2589 25.4846 58.03 26.0322C57.8011 26.5799 57.7397 27.1832 57.8537 27.7658C57.9676 28.3484 58.2518 28.884 58.6701 29.3047C59.0885 29.7255 59.6222 30.0125 60.2037 30.1294C60.7851 30.2462 61.3881 30.1877 61.9363 29.9612C62.4845 29.7347 62.9532 29.3504 63.283 28.857C63.6128 28.3636 63.7888 27.7833 63.7888 27.1897C63.7959 26.7952 63.7238 26.4034 63.5767 26.0374C63.4296 25.6714 63.2106 25.3387 62.9326 25.0591C62.6546 24.7794 62.3234 24.5585 61.9585 24.4094C61.5936 24.2604 61.2025 24.1862 60.8085 24.1912H60.8077ZM60.8077 29.0081C60.442 29.0379 60.0759 28.9566 59.7571 28.7748C59.4384 28.593 59.1819 28.3192 59.0211 27.9891C58.8603 27.659 58.8027 27.2881 58.8559 26.9248C58.9091 26.5614 59.0706 26.2226 59.3192 25.9526C59.5678 25.6826 59.892 25.4939 60.2495 25.4113C60.6069 25.3286 60.981 25.3559 61.3227 25.4894C61.6645 25.623 61.958 25.8566 62.165 26.1598C62.3719 26.463 62.4827 26.8216 62.4828 27.1889C62.4944 27.4189 62.4601 27.649 62.3819 27.8657C62.3037 28.0823 62.1831 28.2812 62.0272 28.4506C61.8713 28.6201 61.6833 28.7567 61.474 28.8526C61.2647 28.9485 61.0385 29.0016 60.8085 29.0089L60.8077 29.0081ZM53.0851 25.1148V26.3791H56.0949C56.054 26.9718 55.8138 27.5331 55.4132 27.9715C55.1115 28.2802 54.7483 28.522 54.3473 28.6811C53.9462 28.8402 53.5161 28.9131 53.0851 28.8951C52.1885 28.8951 51.3287 28.5386 50.6947 27.904C50.0608 27.2694 49.7046 26.4087 49.7046 25.5113C49.7046 24.6139 50.0608 23.7532 50.6947 23.1186C51.3287 22.484 52.1885 22.1275 53.0851 22.1275C53.5049 22.1215 53.9218 22.1988 54.3117 22.3549C54.7016 22.5109 55.0568 22.7427 55.3568 23.0368L56.2508 22.1419C55.835 21.7281 55.3408 21.4018 54.7971 21.1821C54.2534 20.9625 53.6713 20.8541 53.0851 20.8632C51.8539 20.8632 50.6732 21.3527 49.8027 22.2241C48.9321 23.0955 48.4431 24.2774 48.4431 25.5097C48.4431 26.7421 48.9321 27.9239 49.8027 28.7953C50.6732 29.6667 51.8539 30.1562 53.0851 30.1562C53.656 30.1861 54.227 30.0963 54.7613 29.8925C55.2955 29.6887 55.7814 29.3755 56.1877 28.9728C56.594 28.5702 56.9118 28.087 57.1207 27.5542C57.3297 27.0215 57.4251 26.4509 57.4009 25.8791C57.4018 25.6121 57.3781 25.3456 57.3302 25.083L53.0851 25.1148ZM84.7001 26.0949C84.5232 25.5546 84.1844 25.0819 83.7297 24.7412C83.275 24.4004 82.7265 24.2081 82.1587 24.1904C81.7754 24.1937 81.3967 24.2751 81.0458 24.4295C80.6949 24.5839 80.379 24.8082 80.1174 25.0887C79.8557 25.3692 79.6539 25.7 79.524 26.0611C79.3942 26.4221 79.3391 26.8058 79.3621 27.1889C79.3523 27.8271 79.5495 28.4513 79.9239 28.968C80.2984 29.4847 80.83 29.866 81.4391 30.0548C82.0483 30.2437 82.7021 30.2299 83.3028 30.0155C83.9034 29.8011 84.4185 29.3977 84.7708 28.8656L83.7631 28.1833C83.6119 28.4359 83.3976 28.6448 83.1412 28.7893C82.8849 28.9338 82.5953 29.0089 82.3011 29.0073C81.9982 29.0208 81.6984 28.9409 81.4423 28.7782C81.1862 28.6156 80.9862 28.3782 80.8694 28.0981L84.8464 26.4357L84.7001 26.0949ZM80.6538 27.1037C80.6399 26.8869 80.669 26.6694 80.7393 26.4639C80.8096 26.2583 80.9198 26.0687 81.0636 25.906C81.2074 25.7432 81.3819 25.6105 81.577 25.5154C81.7722 25.4204 81.9842 25.3648 82.2009 25.3521C82.4277 25.3364 82.6541 25.3886 82.8512 25.502C83.0484 25.6154 83.2074 25.785 83.3081 25.989L80.6538 27.1037ZM77.4324 30.0034H78.7385V21.2072H77.4324V30.0034ZM75.2848 24.8592H75.2419C75.0448 24.6422 74.8033 24.4703 74.5339 24.355C74.2645 24.2397 73.9734 24.1839 73.6805 24.1912C72.9146 24.2308 72.1931 24.5632 71.665 25.1198C71.1369 25.6765 70.8424 26.4148 70.8424 27.1825C70.8424 27.9502 71.1369 28.6885 71.665 29.2451C72.1931 29.8018 72.9146 30.1342 73.6805 30.1737C73.9749 30.1821 74.2675 30.1252 74.5374 30.0073C74.8073 29.8893 75.0479 29.7132 75.2419 29.4914H75.2848V29.9174C75.2848 31.0687 74.6748 31.6793 73.694 31.6793C73.3679 31.6699 73.0519 31.5635 72.7865 31.3736C72.521 31.1838 72.318 30.919 72.2034 30.6132L71.0676 31.0965C71.2784 31.6208 71.6409 32.07 72.1086 32.3865C72.5763 32.703 73.1279 32.8724 73.6924 32.8728C75.226 32.8728 76.5177 31.9636 76.5177 29.7605V24.376H75.2848V24.8592ZM73.7942 29.0089C73.3442 28.9656 72.9265 28.756 72.6225 28.4211C72.3185 28.0861 72.15 27.6498 72.15 27.1972C72.15 26.7447 72.3185 26.3084 72.6225 25.9734C72.9265 25.6384 73.3442 25.4288 73.7942 25.3855C74.2335 25.4432 74.6368 25.6588 74.929 25.9921C75.2211 26.3255 75.3822 26.7538 75.3822 27.1972C75.3822 27.6407 75.2211 28.069 74.929 28.4023C74.6368 28.7356 74.2335 28.9513 73.7942 29.0089ZM90.8016 21.2064H87.6789V30.0034H88.9849V26.6642H90.8024C91.1715 26.682 91.5403 26.6247 91.8865 26.4956C92.2328 26.3666 92.5492 26.1685 92.8167 25.9133C93.0842 25.6582 93.2972 25.3514 93.4427 25.0114C93.5882 24.6715 93.6632 24.3055 93.6632 23.9357C93.6632 23.5658 93.5882 23.1998 93.4427 22.8599C93.2972 22.5199 93.0842 22.2131 92.8167 21.958C92.5492 21.7029 92.2328 21.5048 91.8865 21.3757C91.5403 21.2466 91.1715 21.1893 90.8024 21.2072L90.8016 21.2064ZM90.8446 25.4412H88.9849V22.4293H90.8446C91.2469 22.4276 91.6336 22.5848 91.9207 22.8669C92.2079 23.1489 92.3722 23.533 92.3781 23.9357C92.3674 24.3363 92.2019 24.7172 91.9163 24.9982C91.6307 25.2792 91.2474 25.4383 90.847 25.442L90.8446 25.4412ZM98.8941 24.1769C98.4179 24.1485 97.9441 24.2619 97.5323 24.5027C97.1205 24.7436 96.7892 25.1012 96.5802 25.5304L97.7304 26.0137C97.8468 25.8037 98.0214 25.6319 98.233 25.5189C98.4447 25.4059 98.6845 25.3566 98.9235 25.3768C99.2566 25.3453 99.5886 25.4472 99.8467 25.6604C100.105 25.8735 100.268 26.1804 100.3 26.5137V26.5989C99.8824 26.3715 99.4135 26.2542 98.9378 26.2581C97.6882 26.2581 96.4251 26.9548 96.4251 28.2335C96.4359 28.5036 96.5007 28.7688 96.6158 29.0134C96.7309 29.2579 96.894 29.4768 97.0953 29.6571C97.2966 29.8373 97.532 29.9752 97.7876 30.0626C98.0432 30.15 98.3137 30.1851 98.5831 30.1658C98.9125 30.186 99.2412 30.1159 99.5338 29.9632C99.8264 29.8104 100.072 29.5807 100.244 29.2987H100.287V29.9811H101.55V26.6069C101.553 26.2674 101.484 25.9311 101.349 25.6198C101.213 25.3085 101.014 25.0293 100.764 24.8002C100.513 24.5711 100.218 24.3973 99.8958 24.29C99.574 24.1828 99.2332 24.1445 98.8957 24.1777L98.8941 24.1769ZM98.735 28.9938C98.3094 28.9938 97.7129 28.7804 97.7129 28.255C97.7129 27.5726 98.451 27.317 99.0897 27.317C99.5069 27.3083 99.9189 27.4114 100.283 27.6156C100.236 27.9935 100.054 28.3415 99.7699 28.595C99.4861 28.8486 99.1201 28.9906 98.7398 28.9946L98.735 28.9938ZM106.117 24.376L104.627 28.1841H104.584L103.044 24.376H101.639L103.967 29.7048L102.647 32.6746H104.009L107.589 24.376H106.117ZM94.3913 30.0034H95.6973V21.2072H94.3913V30.0034Z" fill="#395D69"/>
<path d="M25.3643 23.4894V15.0512C25.3643 14.8507 25.2858 14.5638 25.4774 14.4836C25.6502 14.4097 25.7758 14.6825 25.907 14.8138C28.705 17.6071 31.5 20.4029 34.2922 23.2009C34.615 23.524 34.615 23.524 34.2922 23.8479C31.4587 26.68 28.6249 29.5135 25.7908 32.3482C25.6981 32.441 25.6133 32.6344 25.4719 32.5691C25.3305 32.5039 25.3643 32.3026 25.3643 32.1533C25.3643 29.2656 25.3643 26.3776 25.3643 23.4894Z" fill="#395D69"/>
<path d="M38.0862 19.9795C38.0466 20.0382 38.0033 20.0944 37.9566 20.1477C37.1713 20.9448 36.3773 21.7373 35.5951 22.5407C35.4317 22.7089 35.3241 22.6798 35.1733 22.5281C32.2822 19.6273 29.39 16.7289 26.4967 13.8328C26.4323 13.7683 26.309 13.711 26.3608 13.6017C26.4127 13.4924 26.5352 13.5443 26.6263 13.5482C26.8757 13.5623 27.1182 13.6361 27.3331 13.7636C30.841 15.7598 34.349 17.7582 37.8569 19.7586C37.948 19.8081 38.0619 19.8356 38.0862 19.9795Z" fill="#395D69"/>
<path d="M26.584 33.5049C26.4984 33.4853 26.3853 33.5395 26.3531 33.4303C26.3256 33.3351 26.4261 33.2825 26.4827 33.2243C27.2036 32.4995 27.9259 31.7757 28.6495 31.053L35.0839 24.6123C35.391 24.305 35.3918 24.305 35.7051 24.6218C36.4324 25.3555 37.1586 26.0892 37.8837 26.8229C38.1594 27.1028 38.1609 27.1091 37.8272 27.2993C34.3224 29.2971 30.8173 31.2938 27.312 33.2895C27.0892 33.4167 26.84 33.4904 26.584 33.5049Z" fill="#395D69"/>
<path d="M43.279 23.5381C43.2559 23.7645 43.1761 23.9814 43.0471 24.1689C42.9181 24.3563 42.7439 24.5081 42.5408 24.6104C41.7892 25.0506 41.0298 25.4751 40.2735 25.9098C39.9845 26.0757 39.6923 26.2329 39.4096 26.4074C39.3791 26.4332 39.3438 26.4526 39.3058 26.4644C39.2677 26.4763 39.2276 26.4804 39.188 26.4765C39.1483 26.4726 39.1098 26.4608 39.0747 26.4418C39.0397 26.4228 39.0088 26.3969 38.9839 26.3658C38.1059 25.4785 37.2229 24.5957 36.3349 23.7173C36.1778 23.5648 36.2022 23.4587 36.3459 23.3188C37.236 22.4446 38.1232 21.5667 39.0075 20.6852C39.0547 20.6287 39.1219 20.5926 39.1951 20.5845C39.2683 20.5764 39.3418 20.5971 39.4002 20.642C40.4439 21.2426 41.4955 21.8306 42.5369 22.4351C42.7467 22.5373 42.9258 22.693 43.0561 22.8867C43.1865 23.0804 43.2633 23.3051 43.279 23.5381Z" fill="#395D69"/>
<path d="M51.852 19H52.338L50.394 14.56H49.962L48.018 19H48.504L49.002 17.842H51.354L51.852 19ZM49.17 17.458L50.184 15.112L51.192 17.458H49.17ZM52.9595 19H53.4155L53.4095 15.352L56.4935 19H56.7875V14.56H56.3315L56.3375 18.208L53.2535 14.56H52.9595V19ZM59.5046 14.56H57.9986V19H59.5046C60.8006 19 61.6586 18.112 61.6586 16.792C61.6586 15.448 60.8006 14.56 59.5046 14.56ZM59.4686 18.622H58.4546V14.938H59.4686C60.5006 14.938 61.1846 15.676 61.1846 16.792C61.1846 17.884 60.5006 18.622 59.4686 18.622ZM66.0186 19L64.7586 17.11C65.3466 16.936 65.7066 16.48 65.7066 15.874C65.7066 15.082 65.1186 14.56 64.2186 14.56H62.5806V19H63.0366V17.188H64.1946H64.2966L65.4786 19H66.0186ZM63.0366 14.938H64.1586C64.8066 14.938 65.2326 15.31 65.2326 15.874C65.2326 16.432 64.8006 16.81 64.1586 16.81H63.0366V14.938ZM68.6552 19.06C69.9812 19.06 70.8692 18.148 70.8692 16.78C70.8692 15.412 69.9812 14.5 68.6552 14.5C67.3232 14.5 66.4292 15.412 66.4292 16.78C66.4292 18.148 67.3232 19.06 68.6552 19.06ZM68.6552 18.682C67.6052 18.682 66.9092 17.92 66.9092 16.78C66.9092 15.64 67.6052 14.878 68.6552 14.878C69.6932 14.878 70.3952 15.64 70.3952 16.78C70.3952 17.92 69.6932 18.682 68.6552 18.682ZM71.7857 19H72.2417V14.56H71.7857V19ZM74.9616 14.56H73.4556V19H74.9616C76.2576 19 77.1156 18.112 77.1156 16.792C77.1156 15.448 76.2576 14.56 74.9616 14.56ZM74.9256 18.622H73.9116V14.938H74.9256C75.9576 14.938 76.6416 15.676 76.6416 16.792C76.6416 17.884 75.9576 18.622 74.9256 18.622ZM82.6723 19H83.1583L81.2143 14.56H80.7823L78.8383 19H79.3243L79.8223 17.842H82.1743L82.6723 19ZM79.9903 17.458L81.0043 15.112L82.0123 17.458H79.9903ZM85.3938 14.56H83.7798V19H84.2358V17.296H85.3938C86.2638 17.296 86.8458 16.744 86.8458 15.91C86.8458 15.1 86.2698 14.56 85.3938 14.56ZM85.3338 16.918H84.2358V14.938H85.3338C85.9578 14.938 86.3718 15.334 86.3718 15.928C86.3718 16.522 85.9638 16.918 85.3338 16.918ZM89.2727 14.56H87.6587V19H88.1147V17.296H89.2727C90.1427 17.296 90.7247 16.744 90.7247 15.91C90.7247 15.1 90.1487 14.56 89.2727 14.56ZM89.2127 16.918H88.1147V14.938H89.2127C89.8367 14.938 90.2507 15.334 90.2507 15.928C90.2507 16.522 89.8427 16.918 89.2127 16.918ZM94.8993 19.06C96.2253 19.06 97.1133 18.148 97.1133 16.78C97.1133 15.412 96.2253 14.5 94.8993 14.5C93.5673 14.5 92.6733 15.412 92.6733 16.78C92.6733 18.148 93.5673 19.06 94.8993 19.06ZM94.8993 18.682C93.8493 18.682 93.1533 17.92 93.1533 16.78C93.1533 15.64 93.8493 14.878 94.8993 14.878C95.9373 14.878 96.6393 15.64 96.6393 16.78C96.6393 17.92 95.9373 18.682 94.8993 18.682ZM98.0298 19H98.4858L98.4798 15.352L101.564 19H101.858V14.56H101.402L101.408 18.208L98.3238 14.56H98.0298V19Z" fill="#395D69"/>
</svg>
