<svg width="134" height="47" viewBox="0 0 134 47" fill="none" xmlns="http://www.w3.org/2000/svg">
<rect width="133.5" height="46.5" rx="23.25" fill="#30BCED" fill-opacity="0.18"/>
<path d="M57.308 31H59.12L55.328 22.12H53.756L49.964 31H51.776L52.496 29.236H56.588L57.308 31ZM53.072 27.832L54.548 24.22L56.024 27.832H53.072ZM63.7018 24.412C62.7058 24.412 61.9858 24.82 61.5298 25.504L61.4938 24.532H59.9218V33.64H61.5538V30.064C62.0098 30.724 62.7178 31.12 63.7018 31.12C65.4418 31.12 66.7978 29.764 66.7978 27.736C66.7978 25.732 65.4418 24.412 63.7018 24.412ZM63.3298 29.716C62.2617 29.716 61.5538 28.936 61.5538 27.76C61.5538 26.584 62.2617 25.804 63.3298 25.804C64.3858 25.804 65.1058 26.584 65.1058 27.748C65.1058 28.936 64.3858 29.716 63.3298 29.716ZM71.858 24.412C70.862 24.412 70.142 24.82 69.686 25.504L69.65 24.532H68.078V33.64H69.71V30.064C70.166 30.724 70.874 31.12 71.858 31.12C73.598 31.12 74.954 29.764 74.954 27.736C74.954 25.732 73.598 24.412 71.858 24.412ZM71.486 29.716C70.418 29.716 69.71 28.936 69.71 27.76C69.71 26.584 70.418 25.804 71.486 25.804C72.542 25.804 73.262 26.584 73.262 27.748C73.262 28.936 72.542 29.716 71.486 29.716ZM82.2351 31.12C84.2751 31.12 85.6431 30.064 85.6431 28.492C85.6431 26.896 84.1911 26.152 82.8231 25.78L82.3071 25.636C81.4311 25.384 80.7231 25.132 80.7231 24.424C80.7231 23.8 81.3351 23.404 82.2711 23.404C83.1351 23.404 83.8431 23.668 84.5031 24.196L85.2591 23.02C84.4071 22.336 83.3991 22 82.2591 22C80.2791 22 78.9711 23.08 78.9711 24.7C78.9711 26.152 80.0631 26.764 81.5271 27.16L82.0311 27.304C83.1471 27.616 83.8911 27.928 83.8911 28.648C83.8911 29.332 83.2431 29.716 82.1271 29.716C81.3111 29.716 80.4711 29.488 79.7151 28.864L79.0791 30.004C79.8711 30.736 81.0111 31.12 82.2351 31.12ZM89.8743 29.716C89.3463 29.716 88.9863 29.332 88.9863 28.744V25.864H90.8943V24.532H88.9863V22.636H87.3543V24.532H86.2863V25.864H87.3543V29.08C87.3543 30.304 88.1583 31.12 89.3463 31.12C89.9223 31.12 90.4983 31.024 90.9903 30.82V29.5C90.6183 29.656 90.2463 29.716 89.8743 29.716ZM95.1154 31.12C97.1794 31.12 98.5714 29.776 98.5714 27.76C98.5714 25.756 97.1794 24.412 95.1154 24.412C93.0394 24.412 91.6474 25.756 91.6474 27.76C91.6474 29.776 93.0394 31.12 95.1154 31.12ZM95.1154 29.716C94.0474 29.716 93.3394 28.936 93.3394 27.76C93.3394 26.584 94.0474 25.804 95.1154 25.804C96.1714 25.804 96.8794 26.584 96.8794 27.76C96.8794 28.936 96.1714 29.716 95.1154 29.716ZM101.455 25.396L101.431 24.532H99.8593V31H101.491V27.532C101.491 26.56 102.379 25.912 103.723 25.912L103.831 24.412C102.787 24.412 101.971 24.76 101.455 25.396ZM110.561 27.664C110.561 25.708 109.265 24.412 107.333 24.412C105.389 24.412 104.105 25.768 104.105 27.808C104.105 29.8 105.425 31.12 107.405 31.12C108.629 31.12 109.649 30.568 110.225 29.704L108.965 29.068C108.581 29.536 108.041 29.836 107.381 29.836C106.433 29.836 105.953 29.26 105.833 28.348H110.513C110.537 28.156 110.561 27.892 110.561 27.664ZM107.333 25.696C108.209 25.696 108.725 26.26 108.845 27.244H105.833C105.965 26.26 106.469 25.696 107.333 25.696Z" fill="#395D69"/>
<path d="M51.76 16.3H50.505V20H51.76C52.84 20 53.555 19.26 53.555 18.16C53.555 17.04 52.84 16.3 51.76 16.3ZM51.73 19.685H50.885V16.615H51.73C52.59 16.615 53.16 17.23 53.16 18.16C53.16 19.07 52.59 19.685 51.73 19.685ZM55.9334 20.05C57.0384 20.05 57.7784 19.29 57.7784 18.15C57.7784 17.01 57.0384 16.25 55.9334 16.25C54.8234 16.25 54.0784 17.01 54.0784 18.15C54.0784 19.29 54.8234 20.05 55.9334 20.05ZM55.9334 19.735C55.0584 19.735 54.4784 19.1 54.4784 18.15C54.4784 17.2 55.0584 16.565 55.9334 16.565C56.7984 16.565 57.3834 17.2 57.3834 18.15C57.3834 19.1 56.7984 19.735 55.9334 19.735ZM63.0339 16.3L61.9239 19.49L60.9089 16.3H60.5439L59.5289 19.49L58.4139 16.3H58.0089L59.3339 20H59.6889L60.7239 16.855L61.7589 20H62.1189L63.4389 16.3H63.0339ZM63.9864 20H64.3664L64.3614 16.96L66.9314 20H67.1764V16.3H66.7964L66.8014 19.34L64.2314 16.3H63.9864V20ZM68.5657 19.685V16.3H68.1857V20H70.3157V19.685H68.5657ZM72.3054 20.05C73.4104 20.05 74.1504 19.29 74.1504 18.15C74.1504 17.01 73.4104 16.25 72.3054 16.25C71.1954 16.25 70.4504 17.01 70.4504 18.15C70.4504 19.29 71.1954 20.05 72.3054 20.05ZM72.3054 19.735C71.4304 19.735 70.8504 19.1 70.8504 18.15C70.8504 17.2 71.4304 16.565 72.3054 16.565C73.1704 16.565 73.7554 17.2 73.7554 18.15C73.7554 19.1 73.1704 19.735 72.3054 19.735ZM77.5264 20H77.9314L76.3114 16.3H75.9514L74.3314 20H74.7364L75.1514 19.035H77.1114L77.5264 20ZM75.2914 18.715L76.1364 16.76L76.9764 18.715H75.2914ZM79.7043 16.3H78.4493V20H79.7043C80.7843 20 81.4993 19.26 81.4993 18.16C81.4993 17.04 80.7843 16.3 79.7043 16.3ZM79.6743 19.685H78.8293V16.615H79.6743C80.5343 16.615 81.1043 17.23 81.1043 18.16C81.1043 19.07 80.5343 19.685 79.6743 19.685ZM85.2009 20.05C86.3059 20.05 87.0459 19.29 87.0459 18.15C87.0459 17.01 86.3059 16.25 85.2009 16.25C84.0909 16.25 83.3459 17.01 83.3459 18.15C83.3459 19.29 84.0909 20.05 85.2009 20.05ZM85.2009 19.735C84.3259 19.735 83.7459 19.1 83.7459 18.15C83.7459 17.2 84.3259 16.565 85.2009 16.565C86.0659 16.565 86.6509 17.2 86.6509 18.15C86.6509 19.1 86.0659 19.735 85.2009 19.735ZM87.8097 20H88.1897L88.1847 16.96L90.7547 20H90.9997V16.3H90.6197L90.6247 19.34L88.0547 16.3H87.8097V20ZM95.5107 16.3H92.7457V16.615H93.9407V20H94.3207V16.615H95.5107V16.3ZM98.7462 16.3V17.96H96.4612V16.3H96.0812V20H96.4612V18.28H98.7462V20H99.1262V16.3H98.7462ZM100.514 19.685V18.27H102.289V17.955H100.514V16.615H102.414V16.3H100.134V20H102.459V19.685H100.514Z" fill="#395D69"/>
<path d="M27.6037 23.4552C27.5701 21.9733 27.8692 20.5038 28.4771 19.1645C28.8908 18.2931 29.5212 17.5541 30.3023 17.025C31.0833 16.4958 31.9863 16.196 32.9164 16.157C33.425 16.1302 33.9335 16.2135 34.4099 16.4017C35.0441 16.6309 35.6741 16.8722 36.3067 17.1032C36.6857 17.2197 37.0932 17.1796 37.4447 16.9911C38.2767 16.5953 39.1579 16.3241 40.0623 16.1854C40.8931 16.0641 41.7396 16.1508 42.532 16.4383C43.3245 16.7258 44.0403 17.2059 44.6203 17.8391C44.7251 17.9486 44.8174 18.0709 44.9222 18.1838C45.0624 18.3303 45.0681 18.4285 44.8727 18.5509C44.2872 18.9165 43.7931 19.4221 43.4311 20.0262C42.9926 20.7173 42.7502 21.524 42.7318 22.353C42.6689 23.1096 42.7531 23.8717 42.9792 24.5935C43.4544 25.7517 44.2997 26.7014 45.3708 27.2805C45.671 27.4606 45.6759 27.4597 45.5514 27.7846C45.0197 29.2687 44.2629 30.6538 43.3099 31.8865C42.8774 32.4463 42.3418 32.9096 41.7348 33.249C41.314 33.4704 40.8484 33.5826 40.3774 33.576C39.9064 33.5694 39.4438 33.4442 39.029 33.2111C38.4531 32.906 37.8208 32.7349 37.1756 32.7096C36.5304 32.6843 35.8876 32.8054 35.2915 33.0646C34.7373 33.3281 34.1446 33.4921 33.5382 33.5497C33.2385 33.5828 32.9355 33.5517 32.6476 33.4584C32.3598 33.365 32.0932 33.2114 31.8641 33.0068C29.7162 31.0079 28.2786 28.3085 27.7852 25.3476C27.7436 25.1403 27.7122 24.9309 27.6911 24.7202C27.6549 24.2566 27.6276 23.7938 27.6037 23.4552Z" fill="#395D69"/>
<path d="M41.0612 10.9489C41.0087 12.2796 40.5317 13.5536 39.7062 14.5683C39.3247 14.996 38.863 15.337 38.3497 15.57C37.8365 15.8029 37.2828 15.9228 36.7233 15.9221C36.5427 15.9298 36.5394 15.8109 36.546 15.6825C36.5729 14.5665 36.933 13.4872 37.576 12.5957C38.397 11.5418 39.5564 10.8353 40.8385 10.6077C41.1774 10.5301 41.01 10.8145 41.0612 10.9489Z" fill="#395D69"/>
</svg>
