<svg width="1791" height="1267" viewBox="0 0 1791 1267" fill="none" xmlns="http://www.w3.org/2000/svg">
<g opacity="0.3">
<path fill-rule="evenodd" clip-rule="evenodd" d="M1716.7 732.161C1676.38 819.89 1535.38 866.207 1434.08 932.103C1330.16 999.705 1282.68 1144.45 1116.5 1122.6C924.953 1097.41 951.071 885.297 764.644 844.075C527.575 791.654 241.479 1002.98 68.4378 890.854C-86.4923 790.459 248.058 683.458 366.465 586.055C425.495 537.496 519.811 513.269 583.723 466.974C654.982 415.357 672.063 343.89 759.413 301.423C916.33 225.136 1065.01 98.2263 1282.72 127.149C1487.93 154.411 1586.16 307.47 1668.44 422.187C1741.42 523.917 1762.01 633.587 1716.7 732.161Z" stroke="#FB1F40"/>
<path fill-rule="evenodd" clip-rule="evenodd" d="M1709.62 797.593C1669.3 885.322 1528.3 931.639 1427 997.535C1323.08 1065.14 1275.6 1209.88 1109.41 1188.03C917.873 1162.84 943.991 950.729 757.564 909.507C520.495 857.086 234.399 1068.42 61.3577 956.286C-93.5723 855.892 240.978 748.89 359.385 651.487C418.415 602.928 512.731 578.701 576.643 532.406C647.902 480.789 664.983 409.322 752.333 366.855C909.25 290.568 1057.93 163.658 1275.64 192.581C1480.85 219.843 1579.07 372.902 1661.36 487.619C1734.34 589.349 1754.93 699.019 1709.62 797.593Z" stroke="#FB1F40"/>
<path fill-rule="evenodd" clip-rule="evenodd" d="M1714.93 748.519C1674.61 836.248 1533.61 882.566 1432.31 948.461C1328.39 1016.06 1280.91 1160.81 1114.73 1138.96C923.184 1113.77 949.302 901.655 762.875 860.433C525.806 808.013 239.711 1019.34 66.669 907.212C-88.2611 806.818 246.289 699.816 364.696 602.413C423.726 553.854 518.042 529.627 581.954 483.333C653.214 431.716 670.294 360.248 757.645 317.781C914.562 241.494 1063.24 114.585 1280.95 143.507C1486.16 170.769 1584.39 323.828 1666.67 438.545C1739.65 540.275 1760.24 649.945 1714.93 748.519Z" stroke="#FB1F40"/>
<path fill-rule="evenodd" clip-rule="evenodd" d="M1707.85 813.951C1667.53 901.68 1526.53 947.997 1425.23 1013.89C1321.31 1081.49 1273.83 1226.24 1107.65 1204.39C916.103 1179.2 942.221 967.087 755.794 925.865C518.725 873.444 232.63 1084.77 59.5879 972.644C-95.3421 872.25 239.208 765.248 357.615 667.845C416.645 619.286 510.961 595.059 574.873 548.764C646.133 497.147 663.213 425.68 750.564 383.213C907.481 306.926 1056.16 180.016 1273.87 208.939C1479.08 236.201 1577.31 389.26 1659.59 503.977C1732.57 605.707 1753.16 715.377 1707.85 813.951Z" stroke="#FB1F40"/>
<path fill-rule="evenodd" clip-rule="evenodd" d="M1713.16 764.877C1672.84 852.606 1531.84 898.923 1430.54 964.819C1326.62 1032.42 1279.14 1177.17 1112.95 1155.31C921.413 1130.13 947.53 918.013 761.103 876.791C524.034 824.371 237.939 1035.7 64.8975 923.57C-90.0326 823.176 244.518 716.174 362.924 618.771C421.955 570.212 516.271 545.985 580.182 499.691C651.442 448.074 668.523 376.606 755.873 334.139C912.79 257.852 1061.47 130.943 1279.18 159.865C1484.39 187.127 1582.61 340.186 1664.9 454.903C1737.88 556.633 1758.47 666.303 1713.16 764.877Z" stroke="#FB1F40"/>
<path fill-rule="evenodd" clip-rule="evenodd" d="M1711.39 781.235C1671.07 868.964 1530.07 915.281 1428.77 981.177C1324.85 1048.78 1277.37 1193.53 1111.19 1171.67C919.643 1146.49 945.761 934.371 759.334 893.149C522.265 840.729 236.17 1052.06 63.1279 939.928C-91.8021 839.534 242.748 732.532 361.155 635.129C420.185 586.57 514.501 562.343 578.413 516.048C649.673 464.432 666.753 392.964 754.104 350.497C911.021 274.21 1059.7 147.301 1277.41 176.223C1482.62 203.485 1580.85 356.544 1663.13 471.261C1736.11 572.991 1756.7 682.661 1711.39 781.235Z" stroke="#FB1F40"/>
</g>
</svg>
