
<svg width="1194" height="1589" viewBox="0 0 1194 1589" fill="none" xmlns="http://www.w3.org/2000/svg">
<g opacity="0.3">
<path fill-rule="evenodd" clip-rule="evenodd" d="M585.939 1575.46C485.85 1546.53 418.929 1418.9 335.398 1330.51C249.704 1239.84 86.8056 1209.99 91.0119 1051.79C95.8599 869.462 329.464 872.433 352.342 693.276C381.434 465.452 118.107 218.401 219.624 44.6053C310.516 -111 466.153 192.124 585.939 293.363C645.656 343.834 683.079 429.893 740.91 485.176C805.389 546.814 885.072 555.587 941.499 633.257C1042.86 772.783 1198.28 899.436 1192.45 1106.7C1186.95 1302.07 1032.15 1409.81 917.153 1498.69C815.172 1577.51 698.401 1607.97 585.939 1575.46Z" stroke="url(#paint0_linear)"/>
<path fill-rule="evenodd" clip-rule="evenodd" d="M513.993 1575.46C413.905 1546.53 346.983 1418.9 263.453 1330.51C177.759 1239.84 14.8603 1209.99 19.0666 1051.79C23.9146 869.462 257.519 872.433 280.396 693.276C309.488 465.452 46.1615 218.401 147.679 44.6053C238.57 -111 394.208 192.124 513.993 293.363C573.711 343.834 611.134 429.893 668.965 485.176C733.444 546.814 813.126 555.587 869.553 633.257C970.919 772.783 1126.33 899.436 1120.5 1106.7C1115.01 1302.07 960.209 1409.81 845.208 1498.69C743.227 1577.51 626.455 1607.97 513.993 1575.46Z" stroke="url(#paint1_linear)"/>
<path fill-rule="evenodd" clip-rule="evenodd" d="M567.952 1575.46C467.864 1546.53 400.942 1418.9 317.412 1330.51C231.718 1239.84 68.8193 1209.99 73.0256 1051.79C77.8736 869.462 311.478 872.433 334.355 693.276C363.447 465.452 100.12 218.401 201.638 44.6053C292.529 -111 448.167 192.124 567.952 293.363C627.67 343.834 665.093 429.893 722.924 485.176C787.403 546.814 867.085 555.587 923.512 633.257C1024.88 772.783 1180.29 899.436 1174.46 1106.7C1168.97 1302.07 1014.17 1409.81 899.167 1498.69C797.186 1577.51 680.414 1607.97 567.952 1575.46Z" stroke="url(#paint2_linear)"/>
<path fill-rule="evenodd" clip-rule="evenodd" d="M496.007 1575.46C395.918 1546.53 328.997 1418.9 245.466 1330.51C159.773 1239.84 -3.12605 1209.99 1.08027 1051.79C5.9283 869.462 239.533 872.433 262.41 693.276C291.502 465.452 28.1752 218.401 129.692 44.6053C220.584 -111 376.221 192.124 496.007 293.363C555.725 343.834 593.148 429.893 650.978 485.176C715.458 546.814 795.14 555.587 851.567 633.257C952.932 772.783 1108.35 899.436 1102.52 1106.7C1097.02 1302.07 942.223 1409.81 827.222 1498.69C725.24 1577.51 608.469 1607.97 496.007 1575.46Z" stroke="url(#paint3_linear)"/>
<path fill-rule="evenodd" clip-rule="evenodd" d="M549.966 1575.46C449.877 1546.53 382.956 1418.9 299.425 1330.51C213.732 1239.84 50.8329 1209.99 55.0393 1051.79C59.8873 869.462 293.492 872.433 316.369 693.276C345.461 465.452 82.1341 218.401 183.651 44.6053C274.543 -111 430.18 192.124 549.966 293.363C609.684 343.834 647.107 429.893 704.937 485.176C769.417 546.814 849.099 555.587 905.526 633.257C1006.89 772.783 1162.31 899.436 1156.48 1106.7C1150.98 1302.07 996.182 1409.81 881.181 1498.69C779.199 1577.51 662.428 1607.97 549.966 1575.46Z" stroke="url(#paint4_linear)"/>
<path fill-rule="evenodd" clip-rule="evenodd" d="M531.98 1575.46C431.891 1546.53 364.97 1418.9 281.439 1330.51C195.745 1239.84 32.8466 1209.99 37.0529 1051.79C41.901 869.462 275.505 872.433 298.383 693.276C327.475 465.452 64.1478 218.401 165.665 44.6053C256.557 -111 412.194 192.124 531.98 293.363C591.697 343.834 629.12 429.893 686.951 485.176C751.43 546.814 831.113 555.587 887.54 633.257C988.905 772.783 1144.32 899.436 1138.49 1106.7C1132.99 1302.07 978.196 1409.81 863.194 1498.69C761.213 1577.51 644.442 1607.97 531.98 1575.46Z" stroke="url(#paint5_linear)"/>
</g>
<defs>
<linearGradient id="paint0_linear" x1="641.77" y1="1588.31" x2="641.77" y2="1" gradientUnits="userSpaceOnUse">
<stop offset="0.199652" stop-color="#FB1F40"/>
<stop offset="1" stop-color="#E62A44" stop-opacity="0"/>
</linearGradient>
<linearGradient id="paint1_linear" x1="569.824" y1="1588.31" x2="569.824" y2="1" gradientUnits="userSpaceOnUse">
<stop offset="0.199652" stop-color="#FB1F40"/>
<stop offset="1" stop-color="#E62A44" stop-opacity="0"/>
</linearGradient>
<linearGradient id="paint2_linear" x1="623.783" y1="1588.31" x2="623.783" y2="1" gradientUnits="userSpaceOnUse">
<stop offset="0.199652" stop-color="#FB1F40"/>
<stop offset="1" stop-color="#E62A44" stop-opacity="0"/>
</linearGradient>
<linearGradient id="paint3_linear" x1="551.838" y1="1588.31" x2="551.838" y2="1" gradientUnits="userSpaceOnUse">
<stop offset="0.199652" stop-color="#FB1F40"/>
<stop offset="1" stop-color="#E62A44" stop-opacity="0"/>
</linearGradient>
<linearGradient id="paint4_linear" x1="605.797" y1="1588.31" x2="605.797" y2="1" gradientUnits="userSpaceOnUse">
<stop offset="0.199652" stop-color="#FB1F40"/>
<stop offset="1" stop-color="#E62A44" stop-opacity="0"/>
</linearGradient>
<linearGradient id="paint5_linear" x1="587.811" y1="1588.31" x2="587.811" y2="1" gradientUnits="userSpaceOnUse">
<stop offset="0.199652" stop-color="#FB1F40"/>
<stop offset="1" stop-color="#E62A44" stop-opacity="0"/>
</linearGradient>
</defs>
</svg>
