
<svg width="1920" height="2329" viewBox="0 0 1920 2329" fill="none" xmlns="http://www.w3.org/2000/svg">
<g opacity="0.3">
<path fill-rule="evenodd" clip-rule="evenodd" d="M-47.8049 1693.53C49.5078 1781.36 230.352 1768.27 380.246 1798.97C534.021 1830.46 673.977 1984.83 840.329 1875.42C1032.06 1749.32 873.963 1501.52 1050.35 1358.25C1274.64 1176.05 1713.42 1293.76 1831.92 1069.96C1938.02 869.589 1510.7 904.207 1323.02 843.271C1229.45 812.892 1112.62 829.952 1015.16 804.782C906.491 776.718 844.267 697.339 723.801 688.516C507.396 672.667 268.911 590.491 51.1678 734.18C-154.075 869.62 -166.608 1106.58 -185.374 1288.48C-202.016 1449.79 -157.148 1594.85 -47.8049 1693.53Z" stroke="#717272"/>
<path fill-rule="evenodd" clip-rule="evenodd" d="M-0.0910287 1770.46C97.2217 1858.28 278.066 1845.19 427.96 1875.89C581.735 1907.39 721.691 2061.76 888.043 1952.35C1079.77 1826.25 921.677 1578.45 1098.06 1435.17C1322.36 1252.98 1761.14 1370.69 1879.64 1146.89C1985.73 946.514 1558.41 981.132 1370.73 920.196C1277.16 889.817 1160.33 906.877 1062.87 881.707C954.205 853.643 891.981 774.264 771.515 765.441C555.11 749.592 316.625 667.416 98.8817 811.105C-106.361 946.545 -118.894 1183.5 -137.661 1365.41C-154.302 1526.72 -109.434 1671.77 -0.0910287 1770.46Z" stroke="#717272"/>
<path fill-rule="evenodd" clip-rule="evenodd" d="M-35.8762 1712.76C61.4365 1800.59 242.281 1787.5 392.175 1818.2C545.95 1849.69 685.906 2004.06 852.258 1894.65C1043.99 1768.55 885.891 1520.75 1062.27 1377.48C1286.57 1195.29 1725.35 1313 1843.85 1089.2C1949.95 888.82 1522.63 923.438 1334.95 862.502C1241.38 832.123 1124.55 849.183 1027.08 824.013C918.42 795.949 856.196 716.57 735.73 707.747C519.325 691.898 280.84 609.722 63.0965 753.411C-142.146 888.851 -154.679 1125.81 -173.446 1307.71C-190.087 1469.02 -145.219 1614.08 -35.8762 1712.76Z" stroke="#717272"/>
<path fill-rule="evenodd" clip-rule="evenodd" d="M11.8367 1789.69C109.149 1877.52 289.994 1864.43 439.888 1895.12C593.663 1926.62 733.618 2080.99 899.971 1971.58C1091.7 1845.48 933.604 1597.68 1109.99 1454.4C1334.28 1272.21 1773.06 1389.92 1891.56 1166.12C1997.66 965.745 1570.34 1000.36 1382.66 939.427C1289.09 909.048 1172.26 926.108 1074.8 900.938C966.132 872.874 903.909 793.495 783.443 784.672C567.038 768.823 328.552 686.647 110.809 830.336C-94.433 965.776 -106.966 1202.73 -125.733 1384.64C-142.375 1545.95 -97.5062 1691 11.8367 1789.69Z" stroke="#717272"/>
<path fill-rule="evenodd" clip-rule="evenodd" d="M-23.9485 1732C73.3642 1819.82 254.209 1806.73 404.103 1837.43C557.878 1868.92 697.833 2023.29 864.186 1913.88C1055.92 1787.78 897.819 1539.98 1074.2 1396.71C1298.5 1214.52 1737.28 1332.23 1855.78 1108.43C1961.87 908.051 1534.56 942.669 1346.87 881.733C1253.31 851.354 1136.47 868.415 1039.01 843.244C930.347 815.18 868.124 735.802 747.658 726.979C531.253 711.13 292.767 628.954 75.0242 772.643C-130.218 908.083 -142.752 1145.04 -161.518 1326.95C-178.16 1488.26 -133.291 1633.31 -23.9485 1732Z" stroke="#717272"/>
<path fill-rule="evenodd" clip-rule="evenodd" d="M-12.0197 1751.23C85.2929 1839.05 266.138 1825.96 416.032 1856.66C569.807 1888.15 709.762 2042.52 876.114 1933.12C1067.85 1807.02 909.748 1559.22 1086.13 1415.94C1310.43 1233.75 1749.21 1351.46 1867.71 1127.66C1973.8 927.283 1546.49 961.901 1358.8 900.965C1265.23 870.586 1148.4 887.646 1050.94 862.476C942.276 834.412 880.053 755.033 759.587 746.21C543.181 730.361 304.696 648.185 86.953 791.874C-118.289 927.314 -130.823 1164.27 -149.589 1346.18C-166.231 1507.49 -121.363 1652.54 -12.0197 1751.23Z" stroke="#717272"/>
</g>
</svg>
